<svg width="14" height="26" viewBox="0 0 14 26" fill="none" xmlns="http://www.w3.org/2000/svg">
<path fill-rule="evenodd" clip-rule="evenodd" d="M3.9296 21.522C4.15914 21.2083 4.33293 20.8676 4.5302 20.5384C4.61465 20.3978 4.70301 20.2589 4.8018 20.1257C4.81354 19.9254 4.82528 19.7247 4.83702 19.5247C4.31337 20.0835 3.92014 20.7833 3.9296 21.522M2.90743 18.6092C2.96742 18.9034 3.03622 19.1962 3.09459 19.4904C2.90417 19.3262 2.71669 19.1591 2.52888 18.9924C2.41704 19.232 2.25531 19.468 2.2514 19.7352C2.24716 19.9955 2.09555 20.1735 1.94947 20.4057C2.21423 20.2937 2.46595 20.1574 2.69973 20.0004C2.92015 19.8526 3.15034 19.8939 3.40401 19.8115C4.01668 19.6126 3.77931 19.0148 3.89473 18.5923C3.56574 18.5937 3.23642 18.5989 2.90743 18.6092M9.31318 0.0237262C9.43089 0.0165508 9.54827 0.00880135 9.66565 0.000477866C9.84563 -0.0121509 9.90889 0.228656 10.0139 0.352073C10.2343 0.611823 10.5229 0.823354 10.845 0.979491C10.9836 1.04694 11.1287 1.10377 11.278 1.15055C11.5581 1.23752 11.6148 1.27598 11.7981 1.48866C11.9099 1.61724 12.025 1.74353 12.145 1.86637C12.3051 2.03026 12.2392 2.05925 12.1636 2.2481C12.2516 2.59023 12.4339 2.9292 12.4521 3.27763C12.4704 3.6232 12.699 3.83043 12.7547 4.14672C12.8137 4.47794 12.5089 4.83699 12.6872 5.13463C12.8754 5.44863 13.1329 5.72933 13.2754 6.0637C12.8408 6.0947 12.4009 6.17162 12.023 6.37311C12.0413 6.29274 12.0599 6.21266 12.0778 6.1323C11.9236 6.14407 11.7694 6.1544 11.6155 6.1633C11.636 6.32977 11.6569 6.49652 11.6781 6.66299C11.412 6.82487 11.1453 6.98589 10.8681 7.13198C10.9578 7.20861 11.0468 7.28496 11.1375 7.36044C11.0683 7.50854 10.9872 7.65148 10.9118 7.79671C10.8365 7.94251 10.7674 8.09205 10.7257 8.24819C10.8186 8.39514 10.9187 8.53836 11.0247 8.67842C11.1942 8.90258 10.8339 9.22376 10.7136 9.48035C10.5392 9.85261 10.4596 10.092 10.0921 10.3506C9.57924 10.7108 9.02495 11.0211 8.63139 11.4929C8.2548 11.945 8.07808 12.5477 7.51465 12.8628C7.44096 12.7707 7.36988 12.6769 7.3001 12.583C7.45987 12.9237 7.59747 13.108 7.49117 13.471C7.4452 13.6266 7.39955 13.7822 7.35455 13.938C7.44487 14.0152 7.53486 14.0933 7.62355 14.1716C7.24239 14.2833 7.20457 14.2741 7.21076 14.6561C7.21598 14.9678 7.25706 15.2775 7.30401 15.5861C7.3226 15.71 7.34184 15.8337 7.36042 15.9575C7.39955 16.2143 7.47748 16.1696 7.73897 16.2396C8.08981 16.334 8.12894 16.392 8.30436 16.667C8.35001 16.6259 8.43511 16.619 8.4801 16.5777C8.72465 16.96 9.06831 17.2757 9.30177 17.6632C8.96984 17.978 8.76475 18.375 8.89974 18.807C8.7879 18.7849 8.67606 18.7633 8.5639 18.7415C8.5251 18.8956 8.37772 19.1557 8.53292 19.2536C8.02688 19.321 7.59616 19.5739 7.18924 19.831C6.97763 19.9645 6.89025 19.9562 6.99752 20.1697C7.06371 20.2317 7.04969 20.2707 6.95611 20.2865C6.75559 20.3867 6.78917 20.3169 6.85014 20.5391C6.91275 20.7641 6.85438 20.9957 6.78624 21.2136C6.70537 21.4716 6.77808 21.717 6.77254 21.9825C6.767 22.2491 6.6144 22.4618 6.59451 22.7173C6.57397 22.9822 6.54463 23.248 6.56223 23.514C6.86384 23.1202 6.98578 22.6415 7.30564 22.2572C7.13023 23.0404 6.76863 23.7812 6.59354 24.5651C6.54365 24.2956 6.51691 24.0226 6.45529 23.7545C6.23911 23.7385 6.16901 23.944 6.13086 24.0915C6.08554 24.2672 6.07869 24.4833 5.9574 24.6354C5.66134 24.6081 5.37082 24.5332 5.0715 24.5335C4.71871 24.5338 4.53872 24.6879 4.2782 24.8693C4.1318 24.9718 3.98997 25.08 3.85661 25.1954C3.92736 25.3306 3.97595 25.4746 3.99518 25.623C4.02323 25.8446 4.0692 25.9095 3.79401 25.9336C3.59348 25.9511 3.39296 25.9663 3.19276 25.9864C2.82073 26.0231 2.60031 25.9832 2.24295 25.8943C2.29969 25.7866 2.35772 25.6793 2.41674 25.5725C2.53608 25.3567 2.44511 25.3033 2.33034 25.0958C2.18426 24.8314 2.03362 24.5691 1.87418 24.3108C2.02156 24.3108 2.16796 24.3128 2.31501 24.3128C2.22665 24.2161 2.13829 24.1191 2.04993 24.0223C2.18231 23.9606 2.31566 23.9003 2.44935 23.8404C2.09753 23.3679 1.76691 22.8777 1.54715 22.345C1.43596 22.0752 1.36618 21.7948 1.27554 21.5195C1.22142 21.3545 1.16436 21.1901 1.10762 21.0256C1.21913 20.9797 1.32934 20.9306 1.44085 20.8847C1.27782 20.8873 1.11447 20.8893 0.951114 20.8916C1.24815 20.5038 0.851014 20.4031 0.810909 20.071C0.762978 19.674 0.630273 19.2375 0.834385 18.8566C0.933832 19.0363 1.09458 19.1806 1.30456 19.2599C1.43661 18.8913 1.54943 18.6459 1.43596 18.2725C1.36651 18.0438 1.43237 17.9786 1.55856 17.7654C1.70137 17.5246 1.74767 17.5016 1.98667 17.3633C2.79627 16.8957 2.33979 15.9945 2.14546 15.3754C2.46793 15.3237 2.7053 15.1245 2.85953 14.8791C3.01375 14.6337 2.42261 14.2649 2.27523 14.0494C2.11025 13.8083 2.32153 13.1777 2.31436 12.874C2.30327 12.3996 2.24295 11.9266 2.25078 11.4522C2.25958 10.889 2.54227 9.6583 3.37372 9.592C3.54523 9.57851 3.71641 9.61295 3.88302 9.64223C4.24168 9.70508 4.22342 9.68011 4.26516 9.373C4.28668 9.21314 4.39787 8.94908 4.22701 8.86125C4.08094 8.78577 3.93421 8.71057 3.78814 8.6348C4.3483 8.04986 4.72197 7.31825 4.79207 6.55221C4.80576 6.39923 4.80772 6.2451 4.79696 6.09212C4.78098 5.87083 4.68349 5.78271 4.95803 5.72675C5.37245 5.64208 5.45723 5.58783 5.54494 5.22447C5.62645 4.88521 5.84947 4.59217 6.07413 4.31376C6.19118 4.16911 6.39725 4.00149 6.37866 3.81005C6.36008 3.61804 6.20357 3.46706 6.14292 3.28682C6.38453 2.9556 6.54658 2.58506 6.79308 2.25614C6.8834 2.13502 7.03241 1.85805 7.19413 1.97113C7.32423 2.06212 7.45433 2.15368 7.58279 2.2461C7.80745 1.87556 7.71941 1.45077 7.71517 1.05096C8.25578 1.07679 8.77095 1.23867 9.27242 1.40629C9.31481 0.94792 9.47067 0.478648 9.31318 0.0237262" fill="#0A0D14"/>
<path fill-rule="evenodd" clip-rule="evenodd" d="M8.8998 21.3021C9.17564 21.2298 9.44203 21.1322 9.70157 21.0237C9.52485 21.3035 9.16325 21.5782 9.19977 21.9272C9.21086 22.0193 9.24705 22.1032 9.30737 22.1798C9.22423 22.2713 9.14402 22.3658 9.06739 22.4619C8.87567 22.7033 8.70416 22.957 8.54668 23.2171C8.5232 22.862 8.47136 22.5099 8.41234 22.1585C8.36148 21.8523 8.70188 21.5512 8.8998 21.3021Z" fill="#0A0D14"/>
</svg>
