<svg width="12" height="13" viewBox="0 0 12 13" fill="none" xmlns="http://www.w3.org/2000/svg">
<path d="M10.6 12.0333L6.86667 8.3C6.53333 8.56667 6.15 8.77778 5.71667 8.93333C5.28333 9.08889 4.82222 9.16667 4.33333 9.16667C3.12222 9.16667 2.09733 8.74733 1.25867 7.90867C0.419556 7.06956 0 6.04444 0 4.83333C0 3.62222 0.419556 2.59711 1.25867 1.758C2.09733 0.919333 3.12222 0.5 4.33333 0.5C5.54444 0.5 6.56956 0.919333 7.40867 1.758C8.24733 2.59711 8.66667 3.62222 8.66667 4.83333C8.66667 5.32222 8.58889 5.78333 8.43333 6.21667C8.27778 6.65 8.06667 7.03333 7.8 7.36667L11.55 11.1167C11.6722 11.2389 11.7333 11.3889 11.7333 11.5667C11.7333 11.7444 11.6667 11.9 11.5333 12.0333C11.4111 12.1556 11.2556 12.2167 11.0667 12.2167C10.8778 12.2167 10.7222 12.1556 10.6 12.0333ZM4.33333 7.83333C5.16667 7.83333 5.87511 7.54178 6.45867 6.95867C7.04178 6.37511 7.33333 5.66667 7.33333 4.83333C7.33333 4 7.04178 3.29156 6.45867 2.708C5.87511 2.12489 5.16667 1.83333 4.33333 1.83333C3.5 1.83333 2.79156 2.12489 2.208 2.708C1.62489 3.29156 1.33333 4 1.33333 4.83333C1.33333 5.66667 1.62489 6.37511 2.208 6.95867C2.79156 7.54178 3.5 7.83333 4.33333 7.83333Z" fill="#1D2433" fill-opacity="0.8"/>
</svg>
