<svg width="25" height="25" viewBox="0 0 25 25" fill="none" xmlns="http://www.w3.org/2000/svg">
<path fill-rule="evenodd" clip-rule="evenodd" d="M12.9618 17.5468C12.9087 17.7171 12.7724 17.847 12.5814 17.9133C12.3376 17.9981 12.3374 18.0041 12.332 18.1855L12.332 18.1855V18.1856C12.3313 18.2108 12.3304 18.2394 12.3288 18.2721C12.4362 18.224 12.5487 18.1806 12.6617 18.1371L12.6617 18.1371C12.9912 18.0101 13.3245 17.8816 13.5473 17.629C13.352 17.6025 13.1574 17.5747 12.9628 17.5469L12.9627 17.5469L12.9627 17.5469L12.9626 17.5469L12.9626 17.5469L12.9625 17.5469L12.9624 17.5469L12.9624 17.5469L12.9623 17.5469L12.9623 17.5469L12.9622 17.5469L12.9622 17.5469L12.9621 17.5469L12.962 17.5468L12.962 17.5468L12.9619 17.5468L12.9619 17.5468L12.9618 17.5468L12.9618 17.5468ZM1.62981 17.6501C1.80026 17.6702 1.9707 17.6918 2.1408 17.7133L2.24946 17.727C1.95498 17.4279 1.6946 17.1046 1.47079 16.7641C1.40026 17.0063 1.48564 17.2432 1.56931 17.4752C1.59043 17.5338 1.61144 17.5921 1.62981 17.6501ZM1.10799 12.9011C0.917038 13.6556 1.1582 14.3379 1.62255 14.9678C1.86774 14.776 2.11728 14.5869 2.37642 14.4082C2.20376 14.2234 2.02769 14.0343 1.92323 13.8126C1.89002 13.7424 1.87391 13.6675 1.85791 13.5931C1.83163 13.4709 1.80563 13.35 1.70469 13.2533C1.60263 13.1551 1.46996 13.0896 1.33723 13.0241C1.25873 12.9854 1.18021 12.9466 1.10799 12.9011ZM1.37877 12.2912C1.26377 12.557 1.36327 12.6458 1.67604 12.5551C1.79135 12.2862 1.69185 12.1971 1.37877 12.2912ZM6.61995 8.28611C6.76843 8.4988 7.14785 8.61628 7.37103 8.41234C7.69465 8.11744 6.80625 8.15828 6.61995 8.28611ZM11.8699 1.13744C12.2452 1.04587 12.5335 0.813742 12.8202 0.582873C13.1787 0.29421 13.5348 0.00751486 14.0553 0C13.6281 0.383212 13.2112 0.788435 12.9502 1.27375C12.8487 1.46293 13.0457 1.6741 13.2106 1.85082L13.2106 1.85083C13.2482 1.89112 13.2841 1.92961 13.3144 1.96565C13.3436 2.00031 13.3704 2.0297 13.3947 2.05621C13.4959 2.16704 13.5512 2.22756 13.5355 2.41225L13.5286 2.49399C13.5159 2.64542 13.5032 2.79672 13.4942 2.94821C13.4766 3.2463 13.4725 3.54544 13.506 3.84273C13.5268 4.02637 13.3859 4.16789 13.2399 4.31459C13.1637 4.39118 13.086 4.46917 13.0293 4.55532C12.8043 4.89649 12.6759 5.27267 12.548 5.64712L12.548 5.64713L12.548 5.64722C12.5107 5.75619 12.4736 5.86502 12.4341 5.9728C11.9929 5.87453 11.6536 5.62396 11.3157 5.37445C11.1721 5.26843 11.0288 5.16261 10.878 5.06874C10.5689 5.40237 10.2584 5.16412 9.96871 4.94177C9.8584 4.85712 9.7511 4.77477 9.64802 4.72716L9.67561 4.81724C9.69391 4.87704 9.71221 4.93684 9.73078 4.99687C9.66109 4.98759 9.59122 4.97937 9.52141 4.97115C9.45553 4.96339 9.3897 4.95564 9.32409 4.94701C9.32316 5.02923 9.32254 5.11117 9.32223 5.19365L9.10857 5.06335L9.0014 4.99793C9.00259 5.05682 9.00293 5.11565 9.00326 5.17442V5.17449V5.17458C9.00362 5.23829 9.00398 5.30193 9.00543 5.3655C8.91267 5.36079 8.81972 5.35562 8.72702 5.35045L8.64462 5.34587C8.6781 5.24138 8.71033 5.13637 8.74071 5.03108C8.45429 5.23184 8.1223 5.37849 7.78319 5.50287C7.62384 5.56147 7.46259 5.61519 7.30096 5.66904L7.30096 5.66904L7.268 5.68002C7.07793 5.74262 7.02593 5.70966 6.90431 5.63258C6.87857 5.61627 6.8497 5.59797 6.81574 5.57819C6.77478 5.55439 6.74201 5.53292 6.71382 5.51445C6.60316 5.44194 6.56301 5.41564 6.37403 5.47609C6.20726 5.52966 6.03243 5.5644 5.85543 5.5827C5.5002 5.61956 5.13907 5.58959 4.79065 5.52674C5.07925 5.57925 5.17069 5.76277 5.07243 5.99269C4.87435 6.02107 4.67565 6.04573 4.47696 6.06748C4.25058 6.09208 4.22885 6.15804 4.18443 6.29285C4.17283 6.32805 4.15968 6.36795 4.14094 6.41303C4.07305 6.57613 4.00672 6.73949 3.94255 6.90391C3.77176 6.98374 3.60127 7.06409 3.43698 7.15294C3.25636 7.25043 3.26989 7.26505 3.34536 7.34657L3.34536 7.34658L3.34537 7.34659L3.34538 7.3466L3.34539 7.3466L3.3454 7.34661L3.34541 7.34662L3.34541 7.34663C3.36539 7.36821 3.3897 7.39448 3.4159 7.42821L3.44789 7.46919L3.44796 7.46929L3.44801 7.46934C3.51206 7.55138 3.57618 7.63351 3.63939 7.71622C3.57012 7.70601 3.50107 7.69553 3.43202 7.68506L3.43169 7.68501C3.36275 7.67455 3.29381 7.66409 3.22464 7.6539C3.30519 7.73245 3.38607 7.81086 3.46692 7.88923L3.55105 7.97081C3.39234 7.94986 3.23363 7.92891 3.07492 7.90822L3.07415 7.98126L3.07337 8.05435C3.13125 8.05094 3.19201 8.04352 3.25318 8.03605C3.47737 8.00867 3.70698 7.98064 3.81949 8.1469C3.84581 8.18593 3.87319 8.2184 3.89728 8.24696C3.97761 8.34219 4.02123 8.39391 3.86599 8.50041C3.73425 8.59084 3.60158 8.67995 3.46829 8.76826C3.31685 8.54433 3.10948 8.35371 2.90257 8.1635L2.90257 8.1635C2.6042 7.88923 2.30679 7.61583 2.1794 7.24469C2.22124 7.54808 2.09632 7.82734 1.82416 8.02491C1.8924 8.22064 2.00603 8.39898 2.11968 8.57735C2.23009 8.75062 2.34051 8.92394 2.4094 9.11328C2.40577 9.05155 2.40166 8.99005 2.39756 8.92859L2.39756 8.92856L2.39756 8.92854L2.39755 8.92852L2.39755 8.92849L2.39755 8.92847L2.39755 8.92845L2.39755 8.92843L2.39755 8.9284L2.39755 8.92838L2.39754 8.92836L2.39754 8.92833L2.39754 8.92831L2.39754 8.92829L2.39754 8.92827L2.39754 8.92824L2.39754 8.92822L2.39753 8.9282C2.39288 8.85857 2.38824 8.789 2.38429 8.7192C2.43485 8.73466 2.48547 8.75039 2.53619 8.76614C2.96897 8.90056 3.40856 9.0371 3.87498 9.03426C3.86878 9.28938 3.7203 9.49331 3.41466 9.54131C3.70001 9.52711 3.9821 9.56488 4.26349 9.60255L4.26351 9.60256L4.26353 9.60256L4.26355 9.60256L4.26357 9.60257L4.26359 9.60257L4.26361 9.60257L4.26363 9.60257L4.26365 9.60258L4.26367 9.60258L4.26369 9.60258L4.26371 9.60259L4.26373 9.60259L4.26375 9.60259L4.26377 9.60259L4.26379 9.6026L4.26381 9.6026L4.26383 9.6026C4.33966 9.61275 4.41544 9.6229 4.49122 9.63201C4.52066 9.2549 4.51477 8.84888 4.18217 8.563C4.4101 8.50772 4.58889 8.37618 4.76672 8.24535C4.98987 8.08117 5.21151 7.91811 5.52685 7.90822C5.33806 7.89035 5.14875 7.87469 4.95939 7.85901L4.90349 7.85439C5.13287 7.54755 5.45246 7.26644 5.88085 7.18105C6.12759 7.13199 6.29436 7.10228 6.40998 7.30649C6.54637 7.54755 6.69237 7.7849 6.84705 8.01801C7.08919 7.81658 6.98389 7.598 6.87777 7.3777L6.87776 7.37768C6.85591 7.33232 6.83402 7.28689 6.81513 7.24151C6.76553 7.12297 6.7429 6.99594 6.79746 6.87501C6.83771 6.7858 6.82425 6.69767 6.81032 6.60644C6.79572 6.51081 6.7806 6.41179 6.82628 6.30457C6.96856 5.96909 7.41028 5.67896 7.80303 5.57739C8.04162 5.51571 8.28953 5.57394 8.52432 5.6291L8.52438 5.62911L8.52445 5.62912L8.52451 5.62914L8.52501 5.62926L8.52529 5.62932L8.52579 5.62944C8.55802 5.63701 8.59 5.64452 8.62168 5.65165C8.84348 5.70162 8.75729 5.93984 8.68265 6.14615C8.66142 6.20481 8.64113 6.2609 8.62912 6.30934C8.84083 6.04255 9.05069 5.77417 9.23327 5.49173C9.26372 5.44439 9.28356 5.40069 9.3006 5.36317C9.35085 5.25248 9.37672 5.1955 9.57858 5.2573C9.75341 5.31166 9.92762 5.36709 10.1009 5.42464L10.0069 5.27838L9.95149 5.19206C10.2757 5.34349 10.6517 5.40899 10.9335 5.1544C11.2909 5.52966 11.7401 5.85983 12.2974 5.98606C12.0271 6.62068 12.1824 7.30914 12.4378 7.92652C11.8605 7.78021 11.3474 7.97217 10.8308 8.16542C10.5055 8.28709 10.1789 8.40928 9.83401 8.4479C9.90096 8.59084 11.1607 8.1827 11.3328 8.07158C11.5572 7.92546 12.1585 8.05885 12.4043 8.20365C12.6811 8.36655 12.5438 8.54419 12.3567 8.71315L12.3554 8.71124L12.3499 8.71926C12.3187 8.74724 12.2862 8.77497 12.2542 8.80235C12.1795 8.86619 12.107 8.92813 12.0578 8.98678C11.9245 9.14564 11.8278 9.3265 11.8179 9.52461C11.8074 9.72108 11.5013 9.79074 11.2515 9.84759C11.1988 9.85957 11.1487 9.87098 11.1043 9.88289C11.4491 9.85801 11.7944 9.84872 12.1399 9.83943C12.229 9.83703 12.3181 9.83464 12.4071 9.83197C12.2903 9.79484 12.1734 9.75798 12.0566 9.72112C11.8498 9.65614 11.8768 9.60748 11.9386 9.49625C11.9559 9.46493 11.9761 9.42865 11.9946 9.38564C12.0931 9.15571 12.2065 8.93044 12.3499 8.71926L12.3567 8.71315C12.688 9.1895 13.042 9.52553 13.7332 9.42489C13.8128 9.41327 13.8922 9.40039 13.9718 9.3875C14.2426 9.34362 14.5141 9.29963 14.7906 9.30476C15.0283 9.30871 15.2351 9.55912 15.4095 9.77049L15.4095 9.7705C15.4689 9.84239 15.5245 9.90976 15.5764 9.96139C15.5069 10.0561 15.4369 10.1505 15.3656 10.2441C15.4065 10.3693 15.4142 10.5 15.3826 10.6268C15.3212 10.8753 15.1269 11.0816 14.9201 11.2548C14.873 11.5136 14.7428 11.7557 14.5488 11.9575C14.4511 12.0591 14.3386 12.1498 14.2162 12.2302C14.1374 12.4593 14.0587 12.6882 13.9759 12.9162C13.8693 12.8722 13.7614 12.8279 13.6533 12.7842C13.5197 12.7299 13.6131 12.5474 13.689 12.3992C13.7133 12.3517 13.7358 12.3077 13.7484 12.2726C13.5314 12.218 13.3932 12.354 13.2785 12.4887C13.1322 12.66 13.1473 12.7076 13.197 12.8648C13.2051 12.8901 13.214 12.9184 13.2233 12.9504C13.2658 13.0963 13.2159 13.2011 13.0249 13.2133C12.8127 13.1188 12.865 12.9433 12.9138 12.7796C12.9287 12.7295 12.9433 12.6806 12.9499 12.6354C12.8949 12.6393 12.845 12.6437 12.7992 12.6477L12.799 12.6477L12.7988 12.6478L12.7987 12.6478C12.5169 12.6727 12.3862 12.6842 12.1328 12.4829C12.1871 12.4513 12.2416 12.42 12.2961 12.3886L12.2965 12.3884C12.5328 12.2526 12.7694 12.1166 12.9862 11.9578C12.8256 11.879 12.6623 11.8035 12.4973 11.7311C12.411 11.8162 12.3232 11.9004 12.2355 11.9845C12.1564 12.0604 12.0773 12.1363 11.9992 12.2129C11.8349 12.3747 11.675 12.5399 11.5302 12.7141C11.5823 12.8932 11.6282 13.0738 11.6616 13.256C11.7884 13.9357 11.7345 14.6713 11.1716 15.206C11.1433 15.1592 11.1207 15.1124 11.0993 15.0684C11.0233 14.9115 10.9642 14.7894 10.7289 14.8267C10.334 14.889 9.93878 14.95 9.54046 14.989C9.71497 15.0315 9.89042 15.0686 10.0671 15.1033C10.1282 15.1156 10.1899 15.1223 10.2484 15.1286C10.4401 15.1492 10.5978 15.1662 10.5866 15.3653C10.5806 15.4734 10.5749 15.5815 10.5691 15.6897L10.5691 15.6905L10.5606 15.8496L10.5584 15.8928L10.5573 15.918C10.5465 16.1565 10.546 16.1683 10.2283 16.2275L10.1858 16.2354C9.8413 16.2994 9.47528 16.3674 9.12757 16.2872C9.02881 16.2642 8.95049 16.226 8.87495 16.1892C8.76887 16.1374 8.66829 16.0883 8.52435 16.088C8.44 16.0878 8.35561 16.0873 8.27124 16.0868L8.26977 16.0868H8.26968H8.2696H8.26951H8.26943H8.26935H8.26926H8.26918H8.26909H8.26901H8.26892H8.26884H8.26875H8.26867H8.26859H8.2685H8.26842H8.26833C8.11803 16.0859 7.96778 16.085 7.81791 16.0859C7.9164 16.1112 8.02903 16.1308 8.14574 16.1511C8.59359 16.2291 9.10153 16.3175 9.10153 16.7799C9.18759 16.7685 9.27347 16.7562 9.35933 16.7439L9.35947 16.7439C9.43716 16.7328 9.51481 16.7217 9.59253 16.7112C9.42142 16.8889 9.24722 17.0642 9.06867 17.2363C9.18874 17.2582 9.3228 17.3212 9.45814 17.3849C9.69 17.4939 9.92564 17.6047 10.1012 17.5134L10.1305 17.4982C10.4698 17.3213 10.8104 17.1437 11.1737 17.0045C11.3331 16.9438 11.4967 16.8905 11.6647 16.8489C11.9803 16.7706 12.0305 16.7979 12.281 16.9663C12.6443 17.2101 13.0231 17.444 13.4567 17.5874C13.4353 17.3031 13.3873 17.021 13.3148 16.7423C13.5832 16.8934 13.7354 17.1395 13.8516 17.3877C13.8811 17.4509 13.9087 17.5148 13.9362 17.5787C13.9632 17.6411 13.9901 17.7035 14.0187 17.7651C14.1377 17.7497 14.2568 17.7338 14.3755 17.7161C14.2197 17.8027 14.0623 17.8875 13.9048 17.9723C13.8269 18.0143 13.749 18.0563 13.6712 18.0985C14.0317 18.3937 14.2824 18.7621 14.5318 19.1286C14.5975 19.2251 14.663 19.3214 14.7304 19.4162C14.6055 19.3799 14.4797 19.3459 14.3537 19.3118L14.3535 19.3118L14.2487 19.2834C14.4682 19.7817 14.3709 20.3137 14.1461 20.7969C14.1408 20.8082 14.133 20.8259 14.1231 20.8484C14.0564 20.9997 13.8966 21.3623 13.8042 21.361L13.4508 21.3562C13.5189 21.4257 13.5874 21.4948 13.6559 21.564L13.6564 21.5645L13.6566 21.5647L13.6569 21.5649L13.6571 21.5652C13.7252 21.6339 13.7933 21.7027 13.8609 21.7717C13.5102 21.945 13.1234 21.8981 12.7394 21.8515H12.7394C12.5662 21.8305 12.3935 21.8095 12.2249 21.8089C12.2453 21.7516 12.2664 21.6932 12.2881 21.6354C12.489 21.6999 12.6889 21.7648 12.8885 21.8322C12.8958 21.8101 12.9097 21.7803 12.9251 21.7473L12.9251 21.7472L12.9251 21.7472C12.9607 21.6707 13.0039 21.5778 12.9905 21.5272C12.8306 21.3198 12.564 21.2177 12.2897 21.1666L12.2817 21.1651C11.9241 21.099 11.8518 21.0857 11.6167 20.8316C11.4438 20.8538 11.2708 20.8743 11.0979 20.8948C10.9049 20.9177 10.7119 20.9406 10.5194 20.9658C10.6446 20.7414 10.8566 20.5683 11.1313 20.4829C10.9143 20.2447 10.6282 20.0546 10.2562 20.0795C10.3393 20.2035 10.421 20.3282 10.5028 20.4528L10.5028 20.4528L10.5032 20.4535L10.5033 20.4536C10.55 20.5249 10.5967 20.5961 10.6437 20.6672C10.2486 20.7047 10.2211 20.4957 10.1911 20.2682C10.1713 20.1182 10.1505 19.9602 10.0225 19.8597C9.77263 19.6631 9.65236 19.5642 9.65949 19.2524C9.66035 19.2069 9.66299 19.1613 9.66563 19.1156C9.67153 19.0137 9.67744 18.9117 9.66352 18.8105C9.60423 18.8079 9.54489 18.8055 9.48556 18.8031L9.48518 18.8031L9.48479 18.8031C9.40107 18.7997 9.31737 18.7963 9.23389 18.7922C9.2661 18.6088 9.29002 18.4242 9.314 18.2391L9.31401 18.239L9.3182 18.2067C9.30286 18.2093 9.27823 18.2156 9.24968 18.2229C9.17558 18.2419 9.07504 18.2677 9.0417 18.2526C9.01959 18.1746 8.9978 18.0965 8.97601 18.0184L8.97588 18.0179C8.95006 17.9254 8.92424 17.8328 8.89787 17.7405C8.83882 17.8213 8.76968 17.8963 8.70056 17.9713C8.60133 18.079 8.50215 18.1866 8.4329 18.3112C8.3737 18.4167 8.34239 18.5318 8.35293 18.6496C8.294 18.6606 8.23522 18.6719 8.17644 18.6833C8.11774 18.6946 8.05903 18.7059 8.00017 18.7169C8.08918 18.7215 8.17832 18.7269 8.26741 18.7322L8.39943 18.74C8.56145 18.7496 8.54474 18.9174 8.53002 19.0653C8.52562 19.1096 8.52139 19.152 8.52218 19.1879C8.52277 19.2218 8.51877 19.2559 8.51497 19.2884C8.50275 19.3926 8.49246 19.4803 8.64183 19.4926L8.90621 19.5144L9.17065 19.5361C9.11282 19.557 9.05464 19.5777 8.99653 19.5984L8.99638 19.5985L8.99633 19.5985L8.99628 19.5985L8.99624 19.5985L8.99619 19.5985L8.99614 19.5985L8.99609 19.5986L8.99604 19.5986L8.99599 19.5986L8.99594 19.5986L8.9959 19.5986L8.99585 19.5986L8.9958 19.5987L8.99575 19.5987C8.9451 19.6167 8.8945 19.6347 8.84424 19.6528C8.75559 19.8639 8.6657 20.0745 8.57177 20.2845L8.25614 20.0869L8.17066 20.0334C7.98436 20.1946 7.79993 20.3577 7.61828 20.5227L7.68857 20.5264L7.68945 20.5265C7.86727 20.5361 8.04525 20.5456 8.22274 20.5569C8.06031 20.8897 7.77296 21.1666 7.36503 21.2811C7.6375 21.2822 7.91028 21.2676 8.18027 21.2398C8.38641 21.3562 8.59347 21.4718 8.79992 21.5866L8.8023 21.588L8.80233 21.588C8.96386 21.6782 9.03971 21.7206 9.06394 21.783C9.08538 21.8383 9.06637 21.9092 9.03052 22.043L9.02341 22.0696C8.95491 22.3268 8.90469 22.592 8.94406 22.8567C8.59998 22.6639 8.06868 22.3403 8.55844 22.008C8.21778 22.2396 7.86564 22.461 7.49181 22.6527C7.33186 22.7347 7.16819 22.8116 6.99987 22.8808C6.82631 22.9527 6.73958 22.9004 6.62431 22.8307L6.62429 22.8307C6.57384 22.8003 6.51793 22.7665 6.44687 22.7384C6.28431 22.6747 6.1136 22.6294 5.94281 22.5841L5.94279 22.5841C5.7788 22.5405 5.61473 22.497 5.45773 22.4371C5.32103 22.3854 5.19115 22.3204 5.07832 22.2364C4.89413 22.2151 4.70911 22.2033 4.52412 22.1915C4.45506 22.1871 4.38601 22.1827 4.31701 22.1778C4.1273 22.1637 3.93697 22.1467 3.74975 22.1157C3.41093 22.0605 3.40928 22.0466 3.38389 21.832C3.38085 21.8062 3.37747 21.7776 3.37312 21.7458C3.36218 21.6652 3.34493 21.5829 3.32752 21.4998C3.27438 21.2464 3.21973 20.9857 3.3381 20.7438L3.36789 20.6831C3.516 20.3822 3.60512 20.2012 3.52656 19.8437C3.51554 19.7932 3.5107 19.7449 3.50628 19.7007C3.49128 19.5509 3.481 19.4484 3.25099 19.4637C2.99154 19.4807 2.73302 19.4987 2.4748 19.521C2.51914 19.3538 2.5987 19.3737 2.74369 19.41C2.78016 19.4191 2.82077 19.4293 2.866 19.4377L2.90041 19.0866C3.06252 19.1786 3.22278 19.2733 3.3818 19.3682C3.44504 19.1808 3.50982 18.993 3.57554 18.8055C3.45868 18.5886 3.34213 18.3711 3.23487 18.1507C3.16395 18.1818 3.09286 18.2122 3.02198 18.2426L2.94473 18.2756C3.10948 17.9642 2.78785 17.9038 2.49698 17.8492C2.39874 17.8307 2.30401 17.8129 2.23271 17.7863L2.26222 17.8572L2.26228 17.8573L2.26229 17.8574L2.26231 17.8574L2.26237 17.8575C2.31353 17.9803 2.36458 18.1029 2.41498 18.2258C2.43181 18.2667 2.44432 18.3038 2.45549 18.337C2.50255 18.4767 2.52594 18.5462 2.74914 18.5318C2.75443 18.6018 2.76044 18.6719 2.76644 18.742C2.77168 18.8032 2.77692 18.8643 2.78168 18.9254C2.73327 18.9021 2.68408 18.8818 2.6361 18.862C2.46903 18.793 2.31676 18.7302 2.26402 18.5676C2.21101 18.4029 2.1267 18.2465 2.01728 18.1035C1.7727 17.7837 1.41437 17.5424 1.03619 17.3472C0.864776 17.2581 0.687468 17.1777 0.508301 17.1021C0.605014 16.8825 0.693668 16.6606 0.775192 16.4365C0.95901 15.9337 1.10594 15.421 1.22559 14.9039C1.19741 14.9148 1.16464 14.9167 1.13196 14.9185C1.10102 14.9203 1.07016 14.9221 1.04332 14.9315C1.05143 14.6596 1.00737 14.3907 0.963328 14.1219L0.963327 14.1219C0.945039 14.0103 0.926753 13.8987 0.912203 13.7869C0.862577 13.4022 0.925395 13.0661 0.995272 12.6923L1.00303 12.6508C1.0427 12.4382 1.09671 12.2259 1.1508 12.0133C1.28606 11.4818 1.42181 10.9482 1.33501 10.4032C1.55758 10.5679 1.82602 10.6798 2.11399 10.7318C2.06078 10.6522 2.00172 10.5746 1.94257 10.4967L1.94256 10.4967C1.78325 10.2872 1.62323 10.0767 1.57463 9.82587C1.53812 9.87947 1.50124 9.93301 1.46435 9.98657L1.46434 9.98659C1.41854 10.0531 1.37272 10.1196 1.32757 10.1863C1.30526 9.52275 1.37283 8.84702 1.62236 8.21532C1.65977 8.12026 1.70012 8.03047 1.73979 7.94219L1.73979 7.94218C1.82173 7.75982 1.90077 7.58391 1.94505 7.38127C2.0117 7.07788 2.14778 6.78961 2.32478 6.52176C2.63395 6.05442 3.05394 5.65072 3.46986 5.25092L3.46986 5.25092L3.57926 5.14565C3.62097 5.10552 3.66436 5.05536 3.70949 5.00321C3.86088 4.82822 4.03178 4.63069 4.22401 4.71364C4.54701 4.8534 4.92271 4.8778 5.26833 4.78816C5.37045 4.76197 5.48045 4.69987 5.59034 4.63782C5.75867 4.54279 5.92675 4.44789 6.06591 4.48239C6.3858 4.56168 6.72151 4.59563 7.05381 4.58184C7.66478 4.55638 8.28225 4.35721 8.66849 3.93581C8.95219 3.62683 9.16868 3.26352 9.38402 2.90216L9.38402 2.90215L9.38403 2.90214C9.52632 2.66336 9.6681 2.42543 9.82843 2.2046C10.0525 1.89564 10.2977 1.59782 10.5795 1.32546C10.7691 1.14236 11.1467 1.145 11.4867 1.14739C11.6259 1.14836 11.7588 1.1493 11.8699 1.13744ZM15.45 3.49425C15.5814 3.47871 15.7161 3.44696 15.852 3.41493C16.1871 3.33595 16.5291 3.25531 16.8467 3.4123C16.6809 3.43935 16.515 3.46746 16.3498 3.49584C16.1882 3.52345 16.0746 3.77472 15.9861 3.97054L15.9861 3.97056L15.9861 3.97059C15.9564 4.03616 15.9296 4.09551 15.9047 4.13815C15.6431 4.01218 15.3768 3.89257 15.1084 3.77695C15.2212 3.68174 15.3353 3.58813 15.45 3.49425ZM5.47599 5.91515C5.13099 6.25222 4.69671 6.54553 4.14215 6.48692C4.13733 6.53358 4.13724 6.58636 4.13714 6.64065C4.13682 6.82027 4.13647 7.01634 3.96485 7.06134C3.82133 7.09927 3.73577 7.20004 3.68773 7.31673C3.57036 7.60092 3.75776 7.80259 3.95766 8.01771C4.02545 8.09065 4.09467 8.16514 4.15393 8.24492C4.58759 8.07838 4.92919 7.77764 5.16074 7.42652C5.32492 7.17832 5.25176 6.97227 5.16508 6.72813C5.14636 6.67541 5.12701 6.62091 5.10929 6.56383C5.21947 6.57252 5.32945 6.58352 5.43921 6.59451L5.43923 6.59451L5.43925 6.59451L5.43927 6.59451L5.43929 6.59451L5.43931 6.59451L5.43932 6.59452L5.43934 6.59452L5.43936 6.59452L5.43938 6.59452L5.4394 6.59452L5.43942 6.59452L5.43944 6.59452L5.43945 6.59453L5.43947 6.59453L5.43949 6.59453L5.43958 6.59454L5.51195 6.60175C5.50265 6.37289 5.49087 6.14402 5.47599 5.91515ZM5.78626 6.97964C5.92451 6.77066 6.07454 6.75926 6.23573 6.9449C6.09717 7.15149 5.94776 7.16316 5.78626 6.97964ZM19.261 16.0746L19.2607 16.0746C19.0777 16.0777 18.8945 16.0809 18.712 16.0859C19.0287 15.9687 19.3526 15.8671 19.6765 15.7656L19.6766 15.7656L19.6767 15.7655L19.6768 15.7655L19.6769 15.7655L19.677 15.7654C19.7531 15.7416 19.8292 15.7177 19.9051 15.6937C19.7866 15.9421 19.6705 16.1916 19.5542 16.4414L19.5542 16.4415L19.5542 16.4416L19.5541 16.4417L19.5541 16.4417L19.5541 16.4418L19.554 16.4419L19.554 16.442L19.554 16.442L19.5539 16.4421L19.5539 16.4422L19.5539 16.4423L19.5538 16.4423L19.5538 16.4424L19.5535 16.4431L19.4659 16.6311C19.4673 16.5073 19.4691 16.3835 19.4708 16.2598L19.4708 16.2578L19.4708 16.256L19.4733 16.0708L19.261 16.0746ZM20.9248 14.1135C20.8797 14.0011 20.8346 13.8887 20.7899 13.7761C21.0184 13.8617 21.2183 13.992 21.4118 14.1246C21.366 14.1547 21.32 14.1847 21.274 14.2146L21.274 14.2147L21.2735 14.2149L21.2734 14.215C21.1919 14.2681 21.1104 14.3212 21.0299 14.3757C20.995 14.2882 20.9599 14.2009 20.9248 14.1135ZM20.0032 14.0669C19.8487 14.1855 19.6944 14.304 19.5367 14.4178C19.7997 14.4409 20.0534 14.37 20.2999 14.301L20.3473 14.2878C20.5923 14.2195 20.6434 14.5341 20.6805 14.762C20.6877 14.8065 20.6944 14.8477 20.7019 14.8821C20.7659 15.1759 20.8024 15.4729 20.8388 15.7701V15.7701V15.7701V15.7701V15.7701V15.7701V15.7701V15.7702V15.7702V15.7702V15.7702V15.7702V15.7702V15.7702L20.8388 15.7703C20.8627 15.9651 20.8866 16.1598 20.9182 16.3537C20.6216 16.3516 20.3398 16.4402 20.1123 16.6027L20.1264 16.5792C20.2324 16.4016 20.3388 16.2234 20.4347 16.0416C20.5599 16.0416 20.6854 16.0429 20.811 16.0445C20.7836 15.9229 20.7518 15.8019 20.72 15.6809L20.72 15.6809C20.6582 15.4455 20.5963 15.2101 20.567 14.9696C20.5603 14.9154 20.5615 14.8701 20.5626 14.8313C20.5655 14.7208 20.567 14.6628 20.3817 14.6018C20.2137 14.5458 20.0453 14.4925 19.8764 14.4392C19.9167 14.5271 19.9619 14.613 20.007 14.699L20.007 14.699L20.0071 14.6991L20.0071 14.6991L20.0071 14.6991L20.0071 14.6992L20.0071 14.6992L20.0071 14.6992L20.0072 14.6993L20.0072 14.6993L20.0072 14.6993L20.0072 14.6994L20.0072 14.6994L20.0072 14.6994L20.0073 14.6995L20.0073 14.6995C20.0576 14.7953 20.1079 14.8911 20.1514 14.9893C20.2786 15.2791 20.224 15.2997 19.9346 15.4084L19.8823 15.4282C19.8522 15.4396 19.8226 15.4511 19.7933 15.4625L19.7931 15.4626C19.5692 15.5495 19.3651 15.6288 19.1114 15.6119C18.9068 15.5976 18.7019 15.5849 18.4973 15.5735C18.7379 15.4854 18.9824 15.4032 19.2298 15.329C19.1276 15.1946 19.0222 15.0618 18.9167 14.929L18.9166 14.9288C18.8532 14.8489 18.7897 14.769 18.727 14.6888C18.8956 14.7217 19.0649 14.7538 19.2338 14.7843C19.2903 14.6247 19.3455 14.4652 19.4006 14.3056L19.4007 14.3055L19.4007 14.3054L19.4008 14.3053L19.4008 14.3051L19.4008 14.305L19.4009 14.3049L19.4009 14.3048L19.401 14.3047L19.401 14.3045L19.401 14.3044L19.4011 14.3043L19.4011 14.3042L19.4012 14.3041L19.4012 14.3039L19.4486 14.1669C18.8005 14.5358 18.0618 14.3656 17.3534 14.2024C17.1298 14.1509 16.9092 14.1001 16.6954 14.0672C16.7743 14.1276 16.9651 14.1957 17.182 14.2731C17.6737 14.4484 18.2989 14.6714 18.055 14.9614C17.9149 15.1282 17.6275 15.2006 17.4034 15.237C17.3018 15.2537 17.3022 15.3453 17.3027 15.4449C17.303 15.5026 17.3033 15.563 17.2837 15.613C17.2363 15.7321 17.1501 15.8352 17.0448 15.9214C17.0305 15.7674 17.0162 15.613 17.0023 15.4587C16.9713 15.617 16.94 15.7753 16.9065 15.9328C16.6567 15.9249 16.4074 15.9103 16.1582 15.8933C15.8639 15.9618 15.5706 15.921 15.2766 15.8801C15.0708 15.8515 14.8646 15.8228 14.6576 15.8315C14.7814 15.8942 14.9091 15.9528 15.0369 16.0114C15.38 16.1689 15.7243 16.3268 15.9989 16.5664C15.9899 16.5853 15.9814 16.6027 15.9736 16.6187L15.9736 16.6188L15.9735 16.6188C15.8924 16.7853 15.879 16.8128 16.0051 16.9965C16.0996 17.1347 16.1945 17.2732 16.2909 17.4103L16.0617 17.4137L15.838 17.4172C16.2431 17.7293 16.4477 18.1756 16.5553 18.6233C16.5054 18.6175 16.4554 18.6119 16.4055 18.6062C16.341 18.5989 16.2765 18.5916 16.2118 18.584C16.3749 18.8163 16.4979 19.0792 16.0584 19.1144C16.4251 19.2895 16.8588 19.5857 16.6836 19.9922C17.0336 20.0055 17.3836 20.0267 17.7314 20.0593C17.7187 20.0008 17.7059 19.9422 17.693 19.8834L17.6928 19.8825L17.6644 19.7525C17.7878 19.9835 17.8352 19.9991 18.1349 20.0736C18.4263 20.1463 18.7282 20.2057 19.0342 20.1829C18.9865 20.2117 18.939 20.2407 18.8915 20.2697L18.891 20.27L18.7754 20.3404C19.0627 20.3601 19.3494 20.3898 19.6346 20.4269C19.5477 20.4675 19.4605 20.5078 19.3734 20.5481L19.3729 20.5483L19.3725 20.5485C19.3039 20.5803 19.2353 20.612 19.1669 20.6438C19.1845 20.7584 19.2022 20.8727 19.2202 20.9867C19.2581 21.02 19.295 21.0528 19.3312 21.0851C19.6159 21.3384 19.8601 21.5557 20.2561 21.6839C20.3152 21.703 20.3686 21.7245 20.4195 21.7449L20.4195 21.7449L20.4197 21.745L20.4197 21.745L20.4198 21.745L20.4199 21.7451L20.42 21.7451L20.42 21.7451C20.5765 21.808 20.7081 21.8609 20.9012 21.8041C21.0819 21.7513 21.2577 21.6866 21.4266 21.6107C21.3609 21.4911 21.2933 21.3723 21.2256 21.2535L21.2255 21.2533C21.1844 21.181 21.1432 21.1087 21.1024 21.0361C21.2428 20.918 21.3829 20.7992 21.5227 20.6796C21.2394 20.7732 21.0478 20.7284 21.0317 20.4569C21.0134 20.1431 21.0819 20.0755 21.4375 19.9267C21.688 19.8217 21.9554 19.7544 22.2225 19.6872L22.2227 19.6872C22.3365 19.6586 22.4503 19.6299 22.5627 19.5984C22.779 19.5377 22.7688 19.3383 22.759 19.1483C22.7568 19.1041 22.7545 19.0605 22.7552 19.0192C22.7592 18.8193 22.7071 18.7705 22.5224 18.6554C22.3535 18.5503 22.1627 18.4804 21.9718 18.4104C21.8238 18.3562 21.6758 18.302 21.5379 18.2313C21.3593 17.9128 21.5872 17.5752 21.8321 17.3387C22.0319 17.1451 22.31 17.0474 22.5844 16.9511C22.8889 16.8442 23.1888 16.7389 23.372 16.5059C23.3469 16.7939 23.3224 17.0825 23.3107 17.371C23.5233 17.2527 23.7347 17.1347 23.9439 17.0135L23.9241 16.9735C23.8238 16.771 23.7236 16.5686 23.6163 16.3686C23.5205 16.1901 23.506 15.9757 23.4914 15.7594V15.7594C23.4802 15.5922 23.4688 15.4239 23.4198 15.2701C23.3894 15.1749 23.3486 15.0834 23.3085 14.9935C23.1964 14.7422 23.0903 14.5043 23.2363 14.2382C23.2749 14.1676 23.3181 14.1037 23.3583 14.0442C23.5096 13.8204 23.6175 13.6608 23.2731 13.4508C23.0213 13.2968 22.7159 13.2271 22.4208 13.1597L22.3627 13.1464C22.326 13.1379 22.2913 13.1297 22.2583 13.1218C21.9109 13.0393 21.7482 13.0006 21.3745 13.1719C20.8638 13.4061 20.4328 13.7371 20.0032 14.0669ZM12.9841 13.9012C13.1397 14.0637 13.2733 14.2409 13.401 14.4207C13.4433 14.4797 13.4574 14.5373 13.471 14.5925C13.4895 14.668 13.507 14.7391 13.5938 14.8039C13.8889 15.0229 13.7055 15.305 13.528 15.5781L13.528 15.5782C13.4901 15.6364 13.4525 15.6942 13.4199 15.7509C13.0535 15.7406 12.7671 15.2749 13.016 15.063C13.0875 15.0016 13.1591 14.9411 13.231 14.8802L13.2751 14.8429C13.4194 14.7204 13.3877 14.6958 13.3059 14.6322C13.2733 14.6069 13.2326 14.5753 13.1921 14.5289C13.033 14.3467 12.9431 14.13 12.9841 13.9012ZM15.8123 14.6739C16.0197 14.4233 16.528 14.8649 16.4205 15.0993C16.1517 15.155 15.8774 14.8776 15.8123 14.6739ZM15.596 16.708C15.039 16.8096 15.0811 16.1596 15.6109 16.4534L15.6063 16.5306C15.6026 16.5925 15.5983 16.6645 15.596 16.708ZM24.2753 16.8624C24.0124 16.708 24.0254 16.5667 24.3131 16.4386C24.5626 16.5911 24.5512 16.7324 24.2753 16.8624ZM2.65617 19.83C2.74343 19.8334 2.83068 19.8366 2.91794 19.8398C3.0052 19.843 3.09246 19.8462 3.17972 19.8496C3.05449 20.0779 2.9649 20.3211 2.92244 20.5709C2.91737 20.6006 2.91311 20.6273 2.90928 20.6514C2.8928 20.7549 2.88401 20.8101 2.85168 20.8389C2.81468 20.872 2.74684 20.8704 2.60136 20.8671L2.52969 20.8656C2.55449 20.519 2.59851 20.1734 2.65617 19.83ZM16.3614 19.8235C16.743 19.8773 16.4324 20.5172 16.1407 20.5096C16.0567 20.2876 16.181 19.9887 16.3614 19.8235ZM14.3601 21.5862C14.5358 21.4083 14.6161 21.1851 14.696 20.9627C14.7965 20.6832 14.8965 20.405 15.1852 20.2204C15.0904 20.86 14.9016 21.4111 14.6049 22.0001C14.4264 22.3545 14.2995 22.724 14.1726 23.0936L14.1726 23.0936C14.088 23.34 14.0034 23.5864 13.9035 23.8284C13.7256 23.6469 13.6404 23.424 13.5556 23.2021C13.5219 23.1137 13.4882 23.0256 13.4487 22.9403C13.4725 22.9085 13.4944 22.8742 13.5162 22.84C13.6096 22.6936 13.7011 22.5501 13.9283 22.6284C13.9035 22.5085 13.8787 22.3889 13.8536 22.2688C13.7605 22.2884 13.6671 22.3078 13.5738 22.3273L13.573 22.3274L13.572 22.3276L13.571 22.3278L13.5701 22.328L13.5694 22.3282C13.4575 22.3515 13.3455 22.3748 13.2339 22.3985C13.266 22.3146 13.3902 22.2706 13.519 22.225C13.6076 22.1936 13.6985 22.1614 13.763 22.115C13.8839 22.0284 13.9882 21.9279 14.0924 21.8273L14.0925 21.8273L14.0925 21.8273L14.0925 21.8273L14.0925 21.8273L14.0925 21.8273L14.0925 21.8273L14.0925 21.8272C14.1786 21.7443 14.2646 21.6613 14.3601 21.5862ZM9.70686 21.2268C9.29459 20.9536 8.81505 20.777 8.34295 21.0661C8.67339 21.4058 9.1551 21.6304 9.66315 21.7025C9.4409 21.8858 9.22484 22.0744 9.01437 22.2672C9.08038 22.2876 9.14653 22.3098 9.213 22.3321C9.50326 22.4294 9.79943 22.5287 10.1157 22.4952L10.0856 22.5429L10.0855 22.543L10.0855 22.543L10.0854 22.5431C10.0388 22.6169 9.99206 22.6907 9.94492 22.7644C10.0714 22.7239 10.1982 22.6839 10.3249 22.6439L10.3249 22.6439L10.325 22.6439L10.325 22.6439L10.3253 22.6438L10.3255 22.6437L10.3257 22.6437C10.4573 22.6022 10.5889 22.5607 10.7202 22.5186C10.6643 22.4167 10.613 22.313 10.5618 22.2093L10.5617 22.2092C10.4738 22.0312 10.3859 21.8533 10.2744 21.685C10.1672 21.5236 9.98423 21.4059 9.80816 21.2926C9.77393 21.2706 9.73996 21.2488 9.70686 21.2268ZM22.5616 21.3573L22.5616 21.3573L22.7021 21.3862C22.8881 21.425 23.0735 21.4655 23.2567 21.5135C23.294 21.6103 23.3318 21.7072 23.3696 21.8037L23.3703 21.8054L23.3705 21.8059L23.4275 21.9519C23.1464 21.9792 22.8681 21.9292 22.5944 21.8801L22.5617 21.8742C22.24 21.8161 22.1835 21.8172 22.0084 22.0524C21.8977 22.2012 21.3131 22.7724 21.1417 22.3471C21.0933 22.2253 21.1346 22.0808 21.1696 21.9617C21.218 21.7983 21.386 21.7917 21.5675 21.7846C21.6175 21.7826 21.6685 21.7806 21.7183 21.7753C22.2169 21.722 21.8594 21.432 21.597 21.2191C21.5227 21.1589 21.456 21.1048 21.4185 21.064C21.7857 21.1979 22.1745 21.2778 22.5616 21.3573ZM17.9934 21.652C18.3118 21.5666 18.423 21.6552 18.3291 21.9159C18.0108 21.9987 17.8995 21.9111 17.9934 21.652ZM11.3099 21.794L11.3101 21.7941C11.6664 21.9643 12.429 22.3285 12.3164 22.5185C12.4748 22.5267 12.6332 22.5349 12.7925 22.5434L12.7608 22.3759C12.7405 22.2686 12.7202 22.1615 12.7004 22.0544C12.7869 22.2782 12.8653 22.5055 12.9379 22.7338C12.7376 22.8213 12.5386 22.9099 12.3393 22.9996C11.901 22.6113 11.5045 22.187 11.1732 21.7277C11.2039 21.7434 11.2511 21.7659 11.3091 21.7936L11.3099 21.794ZM17.4066 22.0918C17.3722 21.8634 17.4853 21.7847 17.7497 21.8571C17.7826 22.088 17.6694 22.1658 17.4066 22.0918ZM15.4024 22.2805L15.4208 22.2703C15.8954 22.0062 16.569 21.6315 17.0577 22.059C17.5224 22.4658 17.9266 22.7499 18.5143 23.0267C18.4918 22.972 18.4691 22.9173 18.4463 22.8625C18.4119 22.7796 18.3774 22.6966 18.3438 22.6136L18.508 22.6567C18.6034 22.6818 18.6989 22.707 18.7942 22.7316C18.7799 22.6471 18.765 22.5628 18.7502 22.4784C18.7333 22.3824 18.7165 22.2864 18.7003 22.1903C19.1662 22.5597 19.6922 22.9984 19.792 23.5616C19.8171 23.7056 19.8419 24.2398 19.6243 24.2838C19.4792 24.3135 19.3143 24.2766 19.1509 24.24L19.1509 24.24C19.0261 24.212 18.9023 24.1843 18.7889 24.1867C18.5358 24.1927 18.2968 24.263 18.0587 24.3331L18.0586 24.3331L18.0585 24.3331C17.9596 24.3622 17.8609 24.3912 17.7614 24.4156C17.4893 24.482 17.2675 24.3014 17.0644 24.1359L17.0644 24.1359C17.0072 24.0893 16.9515 24.0439 16.8965 24.0056C16.7005 23.8689 16.442 23.7923 16.1832 23.7156C15.8063 23.604 15.4289 23.4921 15.2431 23.1943C15.2997 23.1861 15.3547 23.1784 15.4085 23.1709C15.6928 23.1313 15.9451 23.0961 16.2291 23.0058C15.8581 22.8594 15.5689 22.5982 15.4024 22.2805ZM20.0308 22.1628C19.9096 22.0129 19.7884 21.8629 19.6681 21.7125C19.6671 21.7518 19.6661 21.791 19.6651 21.8303C19.6631 21.9076 19.6611 21.9849 19.6588 22.0621C19.5761 22.0198 19.4929 21.9783 19.4097 21.9369C19.3205 21.8924 19.2314 21.848 19.143 21.8027C19.149 21.8476 19.1543 21.8931 19.1596 21.9389C19.188 22.1854 19.2175 22.4405 19.373 22.6529L19.3942 22.6818C19.5549 22.9014 19.6958 23.0939 19.8256 23.3416C19.9772 23.6315 20.0729 23.9521 19.8256 24.2271L19.8295 24.2327C20.0151 24.5009 20.2027 24.7718 20.453 24.9999C20.1652 24.1985 20.7492 23.5161 21.2827 22.8925C21.3682 22.7927 21.4523 22.6943 21.5314 22.5972C21.4613 22.574 21.3896 22.5516 21.3175 22.5292C20.8952 22.3976 20.457 22.2611 20.2267 21.9061C20.2069 21.9581 20.1872 22.0103 20.1676 22.0626C20.1445 22.1238 20.1215 22.185 20.0981 22.2461C20.0756 22.2183 20.0532 22.1906 20.0308 22.1628Z" fill="#0A0D14"/>
</svg>
