<svg width="23" height="30" viewBox="0 0 23 30" fill="none" xmlns="http://www.w3.org/2000/svg">
<path fill-rule="evenodd" clip-rule="evenodd" d="M18.1603 0.243886L18.3196 0.632071L18.5314 0.81905L18.686 1.58932L18.9286 2.09742L19.3211 2.69494L19.8111 3.12174L20.3392 3.29043L20.6341 3.17255L20.7412 2.96525L20.8197 2.699L20.7031 2.39211L20.5794 2.27017L20.4748 2.20514L20.2773 2.2153L20.0965 2.42057L19.9205 2.45918L19.8254 2.26407L19.8278 2.0588L19.7326 1.79256L19.4971 1.50396L19.2949 1.17065L19.1688 0.727593L19.0047 0.343473L18.7692 0.109749L18.3815 0L18.1603 0.243886ZM14.3184 0.717441L14.3469 1.14221L14.6395 1.90842L14.7585 2.16043L15.1938 2.87177L15.5196 3.31279L15.6362 3.50384L15.8003 3.95299L15.9312 4.44077L16.169 4.77001L16.4664 4.91634L16.7185 4.8574L16.7875 4.54035L16.64 4.21314L16.5306 4.0851L15.3841 2.12588L14.9273 1.11782L14.7085 0.766218L14.4801 0.587368L14.3184 0.717441ZM16.1003 0.995856L16.0432 1.66451L16.224 2.36162L16.6712 3.31277L16.833 3.59934L17.1636 4.01801L17.5252 4.17247L17.7654 4.00378L17.7511 3.55666L17.6774 3.30464L17.4942 2.85549L16.7854 1.42266L16.6403 0.983662L16.3739 0.749938L16.1003 0.995856ZM17.9843 1.14218L17.8986 1.5832L18.039 2.14008L18.2388 2.76402L18.2745 3.014L18.322 3.84728L18.2911 4.10539L18.234 4.31473V4.48341L18.2055 4.60129L18.0746 4.64194L18.0128 4.57894L17.9676 4.47732L17.9058 4.45699L17.7892 4.64194L17.7178 5.15613L17.9081 5.61545L18.4648 6.2902L18.5195 6.39385L18.5528 6.5036L18.598 6.60319L18.7621 6.7292L18.9191 6.80643L19.0285 6.80236L18.9643 6.58896L18.8168 6.26581L18.4648 5.23946L18.7169 5.12565L18.9762 5.36344L19.4281 6.18452L19.6755 6.45482L20.0014 6.52799L20.3368 6.45482L20.6127 6.2902V6.08493L20.4938 5.94063L20.4367 5.76788L20.3868 5.23946L20.0728 5.41221L19.754 5.17239L19.1379 4.43464L19.2521 4.20904L19.5994 4.54235L20.1275 4.73949L20.6437 4.67243L20.9505 4.20904L20.068 3.74972L19.3663 3.14611L18.8025 2.30063L18.3411 1.10966L18.4648 0.884064L17.9843 1.14218ZM11.062 2.02223L10.4626 2.42464L10.1034 2.55675L9.92977 2.50187L9.73947 2.3779L9.5682 2.34538L9.43024 2.55675L9.45402 2.76405L9.60388 2.94087L9.7918 3.10752L9.92977 3.29044L10.5054 4.82082L11.5378 6.33292L11.7376 6.49347L11.8613 6.55851L12.2086 6.87353L12.3109 7.00767L12.4821 7.1479L13.1529 7.11132L14.4493 8.52789L15.1201 8.99534L15.4151 8.34497L15.2391 7.56047L14.818 7.05644L14.3256 6.68045L13.9403 6.29024L14.4041 6.17642L14.9013 6.5707L15.3437 7.18448L15.6292 7.72916L15.76 8.45472L15.7648 9.20467L15.9241 9.82861L16.5307 10.1883L16.4593 9.98714L16.4522 9.84284L16.5141 9.71886L16.652 9.59286V9.37133L16.5711 9.32865L16.5022 9.24125L16.4284 9.18232L16.6235 8.90388L16.928 8.75755L17.2681 8.7169L17.5655 8.75552V8.52992L17.0136 8.02386L16.6782 7.7942L16.3142 7.72916V7.52186L17.1634 7.85111L18.0245 7.95272L17.4322 7.4243L15.4151 6.49347V6.29024L15.7196 6.16423L16.7091 6.29024L17.123 6.25162L17.3419 6.13984L17.2919 5.94676L16.5926 5.52809L15.691 5.23949L15.5245 5.27811L15.2129 5.4407L15.0773 5.46509L14.906 5.38176L14.5944 5.10942L14.4041 5.05251V4.82895L14.7372 4.7375L15.0345 4.4489L15.1725 4.14404L15.0155 4.00381L13.7262 3.81479L14.0378 3.61765L14.1686 3.5892L13.9094 3.19695L13.5026 3.17459L12.2752 3.54855L12.2014 3.90828L12.368 4.82895L12.1063 4.54035L11.9731 4.20501L11.9231 3.7965L11.9184 3.29044L12.1015 3.06078L12.4774 2.87177L12.7652 2.65837L12.6938 2.34945L12.4893 2.31896L12.3323 2.20515L12.1895 2.05882L12.0183 1.93687L11.8185 1.87997L11.062 2.02223ZM7.40833 3.74768V4.38382L7.7247 4.82891L7.45829 4.94272L7.38693 5.15409L7.37265 5.46301L7.27988 5.87559L7.18711 5.97721L7.07769 5.98534L6.98254 6.06866L6.94448 6.39181L6.96113 6.61741L7.01585 6.72919L7.16808 6.90601L7.31556 7.08079L7.77941 7.45272L7.95544 7.52182L8.22423 7.40191L8.49065 7.2007L8.71425 7.16209L8.85935 7.52182L8.59531 7.64173L8.58104 7.92626L8.74755 8.21283L9.03538 8.34493L10.3318 8.52988L10.5744 8.67215L10.8789 8.91603L11.1334 9.20666L11.2381 9.48307L11.2666 9.97287L11.3475 10.3224L11.5021 10.5318L11.7376 10.6009L12.3204 10.8935L13.1981 12.1861L14.2376 12.7938L14.7134 13.4157L15.2153 13.8791L15.7529 13.7043L15.6863 13.2044L15.7719 12.8182L15.8052 12.5662L15.2605 12.2959L15.2224 11.8671L15.3532 11.3772L15.5269 11.0094L15.0773 10.6171L13.9617 10.6415L13.3789 10.4139V10.1883H14.3399L14.4755 10.046L14.3994 9.72695L14.1686 9.2778L13.9236 8.90181L12.4798 8.96074L12.6653 8.89977L12.8913 8.75954L13.1101 8.56443L13.2671 8.34493L13.3718 8.02585L13.3551 7.7657L13.2124 7.58685L12.3799 7.36126L11.4355 6.65399L10.8836 6.49343L10.886 5.80242L10.0891 4.43869L9.87982 3.70297L9.64195 3.29243L9.08533 2.99773L7.95544 2.76401L7.85791 2.72133L7.77941 2.73149L7.70329 2.70304L7.61766 2.55671L7.40833 3.74768ZM21.4618 3.24368L21.1835 3.36359L20.9885 3.59731L21.0479 3.93266L21.2168 4.331L21.4119 4.63586L21.6878 4.68057L21.9495 4.59725L22.1612 4.48547L22.311 4.32897L22.3871 4.13996V3.85746L22.2777 3.54854L22.7582 3.11157L22.7773 2.91647L22.5204 2.76607L22.0232 2.75388L21.4618 3.24368ZM6.12153 7.36741L5.83608 7.66007L5.64578 7.72917L5.59821 7.79218L5.58156 7.93444L5.54112 8.07468L5.41267 8.13972L5.02969 8.16004L4.90838 8.13972L4.70619 8.0381L4.12102 7.52187L3.72616 7.58081L3.75946 8.17223L4.06869 8.85715L4.51351 9.18233L5.3532 9.34492L5.77661 9.53393L6.14293 9.78188H4.57298V9.98512L4.80372 10.0075L5.46976 10.414L6.49498 10.6009L7.23239 11.044L7.40365 11.0094L7.4322 10.7534L7.28472 10.4952L7.08015 10.29L6.94456 10.1884L7.18957 10.0441L7.42268 10.2229L7.60822 10.5928L7.72478 11.0094L7.64866 11.1131L7.50832 11.4383L7.79138 11.233L8.75477 10.8245L8.59539 10.8164L8.45029 10.7798L8.3147 10.7066L8.18149 10.6009L8.47408 10.4099L8.74049 10.4404L9.01167 10.5522L9.30663 10.6009L9.65392 10.4546L9.85373 10.1436L10.0036 9.75546L10.2058 9.37134L9.88466 8.93438L9.47789 8.85715L9.04259 8.88153L8.63107 8.75553L8.46456 8.54213L8.20052 8.05029L8.01974 7.95274L7.80804 7.90193L7.16816 7.52187V7.29628H7.27996V7.11133L6.12153 7.36741ZM0.664609 8.59496L0.222168 8.81852L0.276878 9.03395L1.62799 9.14573L1.83494 9.12134L1.99193 9.06647L1.8397 8.97501L1.61372 8.79616L1.14749 8.57463L0.664609 8.59496ZM12.5035 15.2022L12.8579 15.9278L12.9269 16.4481L13.0221 16.8302L13.2409 17.0415L13.5049 17.137L15.0154 17.3728L15.2366 17.5862L16.3118 19.521L16.4284 19.6044L16.5901 19.5109L16.74 19.2995L16.8637 19.0922L16.9398 18.9967L16.9755 18.141L16.9398 17.9825L16.8875 17.8911L16.9969 17.6878L17.2276 17.3728L17.1182 17.0822L16.6401 16.6676L16.5307 16.2448L16.3285 16.0335L15.0773 15.7245L14.8941 15.6209L14.661 15.2673L14.504 15.1128L14.3066 15.0376L13.7785 15.1128L13.4455 15.0518L12.7485 14.7856L12.3679 14.7246L12.5035 15.2022ZM12.2848 22.5147L11.683 22.8643L11.7496 22.9456L11.7568 22.9741L11.7924 23.0838H11.457L11.6045 23.5289L11.683 23.6712L11.7282 24.2077L12.1088 24.9353L12.6155 25.6345L13.0532 26.0917L12.9747 26.8397L13.6835 27.7136L15.1797 28.9249L15.7887 29.7012L16.155 30L16.5308 29.9472L16.6712 29.5874L16.5879 29.0854L16.3405 28.6566L15.9766 28.5245L16.0503 28.2318L16.0932 28.1221L15.4342 28.0814L15.144 28.1892L14.9561 28.5245L14.8729 28.2481L14.7492 28.0611L14.5922 27.9595L14.4043 27.9209V27.7014L14.7777 27.801L15.0655 27.7685L15.6293 27.5002L15.8148 27.488L16.0051 27.5205L16.155 27.4758L16.2121 27.2258L15.527 26.9149V26.7136L15.7078 26.61L15.7578 26.4515L15.6888 26.2625L15.527 26.0917L15.3676 26.045L15.0061 26.1202L14.8419 26.0917L14.6897 25.8966L14.5541 25.608L14.3638 25.3601L14.0451 25.2869L14.1735 25.0959L14.4233 25.0695L14.6945 25.1731L14.8967 25.3967L15.1155 25.5613L15.3867 25.5145L15.5675 25.2788L15.527 24.8825L15.1678 24.5532L14.1497 24.4232L13.7144 23.9272L12.2563 24.0756V23.8927L13.0532 23.2688L12.8652 23.2911L12.6892 23.2769L12.5227 23.2139L12.3681 23.0838L12.4846 22.9985L12.8177 22.6794L12.5774 22.4802L12.2848 22.5147Z" fill="#0A0D14"/>
</svg>
