<svg width="17" height="25" viewBox="0 0 17 25" fill="none" xmlns="http://www.w3.org/2000/svg">
<path fill-rule="evenodd" clip-rule="evenodd" d="M9.91889 0.491435C10.1526 0.320573 10.3935 0.156029 10.641 0C10.8025 0.320573 11.1175 0.541705 11.4469 0.732895C11.7086 0.884803 12.1462 1.03726 12.1838 1.343C12.2394 1.7935 11.4713 2.17946 11.9282 2.61677C11.7564 2.71786 11.5815 2.81566 11.4078 2.91427C11.6264 3.0063 11.8717 3.0214 11.7847 3.23951C11.6759 3.51147 11.5872 3.8021 11.6226 4.0919C11.6951 4.69239 12.3758 4.79623 12.7987 5.20031C12.9814 5.37474 13.1368 5.5695 13.2694 5.77415C13.4579 6.06561 13.3545 6.21944 13.1682 6.49991C12.8973 6.90783 12.511 7.32318 12.5624 7.82066C12.904 8.36868 13.2495 8.9156 13.5474 9.48258C13.6826 9.74025 13.8078 10.0018 13.9177 10.2679C13.9828 10.4256 14.11 10.5396 13.9376 10.6413C13.8393 10.6989 13.7597 10.7772 13.7009 10.8654C13.4884 11.1827 13.5031 11.6626 13.813 11.9332C13.7073 12.1183 13.4258 12.3345 13.6113 12.5526C13.8435 12.7479 14.1665 12.8306 14.414 13.0081C14.1508 13.2036 14.1668 13.4888 14.276 13.7475C14.4311 13.8319 14.5839 13.9184 14.7371 14.0055C14.9499 14.1264 14.922 14.2549 14.9618 14.4642C15.0074 14.7002 14.6215 15.0372 14.4645 15.2339C14.3174 15.418 14.4012 15.4147 14.5749 15.552C14.7265 15.6707 14.8886 15.7787 15.0533 15.883C15.5866 16.2212 16.1684 16.5393 16.4931 17.053C16.478 17.6548 16.1627 18.1963 15.7899 18.6927C15.0026 19.7398 14.3103 20.8202 13.3567 21.7674C12.8674 22.2533 12.3614 22.7293 11.9263 23.2529C11.5994 23.2326 11.208 23.1329 10.9155 23.259C10.5575 23.4131 10.1594 23.4765 9.77088 23.5471C9.80395 23.5864 9.80138 23.6474 9.83445 23.6869C9.39585 23.8114 8.94634 23.9045 8.5026 24.0133C8.24894 24.0751 7.99657 24.1421 7.74966 24.2226C7.6604 24.3273 7.57371 24.4336 7.48445 24.5385C7.39743 24.4816 7.31203 24.4229 7.22533 24.3657C7.04424 24.4322 6.86155 24.4959 6.67853 24.5583C6.25149 24.7041 5.82188 24.8434 5.39998 25C5.36948 24.8341 5.33898 24.6682 5.30783 24.5022C5.45617 24.5959 5.60451 24.6899 5.75157 24.7849C5.68607 24.5956 5.54993 24.4311 5.34187 24.3402C5.10748 24.238 5.35118 23.8358 5.42503 23.6328C5.11743 23.7779 5.13477 23.8188 5.15275 24.1295C5.15981 24.2482 5.1688 24.3671 5.17908 24.4858C5.04197 24.4965 4.90487 24.5077 4.76809 24.5193C4.40302 24.55 4.45247 24.397 4.3433 24.1174C4.43802 24.1446 4.53306 24.1712 4.62778 24.1982C4.64319 24.0561 4.66213 23.9144 4.67787 23.7724C4.34298 23.9619 4.06235 24.2168 3.66806 24.1899C3.40959 24.1723 3.04259 24.1954 2.93311 23.9386C3.11163 23.8776 3.2924 23.8215 3.47509 23.7707C3.47413 23.8658 3.47349 23.9614 3.47317 24.0567C3.74255 24.0435 4.0158 23.9795 4.21069 23.8106C4.38954 23.6554 4.12015 23.5875 3.97759 23.4828C3.75989 23.3224 3.75989 23.1386 3.69214 22.906C3.67802 23.2845 3.59165 23.2411 3.1736 23.3631C3.21373 23.254 3.25419 23.145 3.29464 23.0359C3.17777 23.0771 3.06122 23.1183 2.94466 23.1593C3.1996 22.6483 2.96586 22.0453 3.32707 21.5619C3.52229 20.9858 3.55825 20.3428 3.29946 19.7772C3.18997 19.5385 3.36432 19.2497 3.29143 18.9685C3.22208 18.7001 3.09108 18.4427 3.0686 18.1661C3.04709 17.8971 3.30107 17.7131 3.44298 17.492C3.51491 17.3799 3.55857 17.2576 3.5499 17.1285C3.68572 17.1241 3.82122 17.1217 3.95736 17.1173C3.72682 16.9722 3.46353 16.8689 3.18869 16.803C3.25579 16.6398 3.32675 16.478 3.3945 16.3149C3.47445 16.6154 3.52261 16.7027 3.7904 16.897C3.80517 16.8082 3.8209 16.7195 3.83599 16.6308C4.04919 16.7052 4.2611 16.781 4.47366 16.8558C4.37605 16.6901 4.27908 16.5239 4.18179 16.3577C4.3783 16.4778 4.57448 16.5975 4.77162 16.7162C4.71511 16.5618 4.65892 16.4072 4.60273 16.2525C4.80919 16.0649 4.98643 15.8556 5.15211 15.6408C5.31168 15.4336 5.56566 15.3894 5.79652 15.2493C6.03187 15.1065 6.18856 14.8645 6.35745 14.6686C6.73312 14.2316 7.10043 13.7855 7.3878 13.2998C7.60068 12.9383 7.98791 12.6444 8.4721 12.9045C8.45123 12.6509 8.45958 12.3839 8.31445 12.1535C8.35458 11.8656 8.39118 11.5774 8.42201 11.2887C8.17189 11.1695 7.92305 11.047 7.6726 10.9272C7.53293 10.8275 7.38042 10.7421 7.22341 10.6641C7.0131 10.5599 7.04232 10.4822 6.95402 10.2968C6.84068 10.0605 6.68848 9.83996 6.57065 9.60509C6.40818 9.28095 6.51574 9.03839 6.63486 8.7126C6.71353 8.49861 6.90971 8.20249 6.77261 7.99838C6.62619 7.77973 6.41107 7.55173 6.41332 7.28664C6.41524 7.06359 6.66505 6.9114 6.4724 6.70099C6.25246 6.46145 6.28071 6.34086 6.30222 6.02825C6.31924 5.78322 6.47272 5.46402 6.31314 5.26349C6.13783 5.04346 5.99398 4.80996 5.82188 4.58966C5.50979 4.19079 4.88721 4.0941 4.47751 3.76968C4.03891 3.42246 3.71045 2.99036 3.36753 2.57557C3.54124 2.59123 3.7143 2.60798 3.88833 2.62337C3.7859 2.40993 3.90438 1.93085 4.2733 1.99541C4.70355 2.07122 4.97134 2.82637 5.10041 3.13128C5.22756 3.43125 5.23687 3.44554 5.5968 3.54333C5.94935 3.6392 6.13654 3.71062 6.43611 3.50542C6.52056 3.44719 6.60211 3.38675 6.68238 3.3244C6.87022 3.17991 6.91388 3.3005 7.10043 3.40983C7.35056 3.55624 7.60421 3.69936 7.84952 3.85264C7.92786 3.54223 8.13207 3.27165 8.39632 3.05272C8.63617 2.85439 8.62493 2.83928 8.62397 2.54728C8.62365 2.32971 8.63938 2.11243 8.66796 1.89624C8.73314 1.40151 9.01505 0.212616 9.91889 0.491435Z" fill="#0A0D14"/>
<path fill-rule="evenodd" clip-rule="evenodd" d="M1.0546 23.2974C1.31789 23.4619 1.57925 23.6295 1.8252 23.8132C1.60076 23.8179 1.37665 23.8253 1.15253 23.83C1.34133 24.0143 1.52081 24.2061 1.68874 24.4049C1.28867 24.2473 0.904015 24.0638 0.506836 23.9006C0.701091 23.749 0.955067 23.6792 1.21579 23.6949C1.16184 23.5627 1.1079 23.4298 1.0546 23.2974Z" fill="#0A0D14"/>
<path fill-rule="evenodd" clip-rule="evenodd" d="M7.5761 12.3456C7.89493 12.2519 8.00089 12.3374 7.893 12.6005C7.57032 12.6923 7.46468 12.6068 7.5761 12.3456Z" fill="#0A0D14"/>
</svg>
