<svg width="25" height="16" viewBox="0 0 25 16" fill="none" xmlns="http://www.w3.org/2000/svg">
<path fill-rule="evenodd" clip-rule="evenodd" d="M22.2988 9.7923C22.3147 9.96072 22.5762 9.86569 22.6117 9.75245C22.5928 9.59612 22.3232 9.67041 22.2988 9.7923ZM13.8117 2.98664C13.9897 3.19003 14.1155 3.43003 14.2119 3.67851C14.2631 3.80996 14.3969 4.44358 14.5068 4.43565C14.4381 4.13741 14.5386 3.68482 14.3867 3.42769C14.2465 3.19075 14.0703 2.96644 14.0068 2.69543C13.9398 2.79136 13.8737 2.88782 13.8117 2.98664ZM18.4656 0.0390029C18.7452 -0.10561 19.0974 0.177665 18.9468 0.46635C19.1343 0.559754 19.3323 0.629716 19.5281 0.703646C19.5194 0.916778 19.4336 1.11909 19.2809 1.27326C19.5842 1.4213 19.8853 1.57709 20.1586 1.774C20.1694 1.65517 20.1804 1.53634 20.1897 1.41733C20.2031 1.24946 20.234 1.29652 20.3857 1.27813C20.6143 1.25018 20.6921 1.15822 20.7937 0.968349C20.9015 0.766756 20.9633 0.665419 21.2086 0.649371C21.426 0.635306 21.6442 0.656223 21.8614 0.639994C21.6829 0.754134 21.4985 0.859799 21.3175 0.971414C21.2274 1.02677 21.1379 1.08375 21.0508 1.1438C21.0575 1.28949 21.0653 1.43519 21.0752 1.5807C20.9769 1.72531 20.8261 1.8225 20.69 1.92997C20.5806 2.01652 20.6673 2.03059 20.7366 2.12165C20.8202 2.232 20.8386 2.33965 20.9856 2.36435C21.1904 2.39879 21.403 2.38671 21.5899 2.29186C21.7646 2.39464 21.8987 2.57171 21.8895 2.77673C21.8799 2.99942 21.6355 3.23023 21.5128 3.40928C21.4115 3.55714 21.4529 3.76161 21.4529 3.93616C21.7851 3.79678 22.1127 3.639 22.4673 3.55948C22.3476 3.82707 22.4906 4.06436 22.7129 4.22683C22.8139 4.30058 22.9252 4.36062 23.039 4.41418C23.2173 4.49802 23.3346 4.39326 23.4989 4.30076C23.584 4.46142 23.6639 4.62478 23.7428 4.78833C23.8113 4.74668 23.8792 4.70394 23.9475 4.66211C24.078 4.84044 24.1193 5.06385 24.0911 5.27807C24.0529 5.57 23.9181 5.59705 23.6424 5.66448C23.7389 5.71659 23.8375 5.7651 23.9343 5.81667C23.7552 5.8787 23.5671 5.93622 23.4232 6.06262C23.5972 6.05523 24.5075 5.81757 24.1806 6.24258C24.0103 6.464 23.6722 6.49033 23.4107 6.48762C23.4479 6.61835 23.5479 6.541 23.6685 6.52621C23.8654 6.50187 24.0644 6.49718 24.263 6.50187C24.1218 6.60194 23.9803 6.70112 23.8364 6.79759C23.9667 6.84537 24.0942 6.90127 24.2271 6.94184C24.2763 6.83167 24.3256 6.72149 24.3732 6.6106C24.4797 6.85889 24.4658 7.19031 24.277 7.39948C24.1668 7.52119 24.0164 7.60864 23.8921 7.48729C23.7389 7.33763 23.5607 7.21502 23.382 7.09619C23.34 7.30283 23.125 7.35638 22.952 7.42743C23.159 7.43176 23.3681 7.40381 23.5736 7.44131C23.7808 7.60125 23.9907 7.75813 24.2072 7.90635C24.0866 7.9233 23.9654 7.93898 23.8446 7.95539C23.6469 7.98226 23.6155 8.02752 23.5546 7.83963C23.5442 7.89877 23.5336 7.9581 23.5244 8.0176C23.664 8.02085 23.8038 8.02301 23.9433 8.02409C23.9833 8.11209 24.0244 8.1999 24.0659 8.28735C23.9985 8.30268 23.9315 8.31855 23.8643 8.33405C23.756 8.3593 23.8357 8.40113 23.8102 8.48696C23.7737 8.6094 23.606 8.61498 23.4999 8.61859C23.5371 8.7504 23.6311 8.8777 23.4924 8.94154C23.3508 9.00681 23.2115 9.08867 23.0533 9.10941C22.7449 9.07623 22.611 8.76771 22.3895 8.60128C22.4966 8.79187 22.6339 8.96588 22.7925 9.11915C22.8899 9.21327 23.049 9.27692 23.009 9.43109C22.878 9.38078 22.7477 9.3294 22.6168 9.27891C22.6494 9.36726 22.6818 9.45544 22.7158 9.54325C22.8136 9.50755 22.9111 9.47112 23.009 9.43524C22.8422 9.61033 22.6747 9.79353 22.5725 10.0124C22.5222 10.1201 22.4899 10.2353 22.4839 10.3534C22.4807 10.4165 22.4845 10.4791 22.4953 10.5411C22.3916 10.5988 22.2873 10.6545 22.1822 10.7097C22.0424 10.7835 21.9016 10.8558 21.7617 10.9288C21.6072 11.0092 21.6528 11.1356 21.5789 11.2826C21.47 11.4997 21.2483 11.614 21.0018 11.563C21.0806 11.478 21.1602 11.3933 21.239 11.3084C21.0485 11.3192 20.8579 11.3266 20.6677 11.3354C20.6677 11.1883 20.6664 11.0409 20.6664 10.894C20.5153 11.017 20.519 11.2198 20.4691 11.3893C20.6178 11.4207 20.7781 11.4488 20.8905 11.5574C20.6201 11.5857 20.3224 11.5053 20.0711 11.6371C19.7813 11.7893 19.4261 12.0076 19.1774 12.2166C18.9472 12.4099 18.8014 12.6793 18.5669 12.8686C18.3139 13.0663 18.1297 13.3306 17.9753 13.6045C17.9134 13.7143 17.8556 13.8265 17.7985 13.9388C17.62 13.9449 17.4415 13.9494 17.2628 13.9566C16.9058 13.9714 16.5467 13.9987 16.1984 14.08C15.9121 14.1469 15.53 14.2515 15.3176 14.4617C15.1465 14.6316 15.0974 14.8779 15.0012 15.0881C14.7571 15.6219 14.1142 15.6547 13.6131 15.8314C13.4521 15.8884 13.2922 15.9524 13.1243 15.9883C12.9495 16.0254 12.7579 15.965 12.5835 15.9371C12.2356 15.8813 11.9439 15.791 11.6234 15.6467C11.3302 15.5148 11.0371 15.3745 10.7214 15.3011C10.4353 15.2347 10.1529 15.2757 9.86548 15.2441C9.58887 15.2138 9.39156 14.8579 9.19443 14.6889C8.93979 14.4705 8.66225 14.2794 8.397 14.0737C8.50906 13.9747 8.62409 13.8786 8.73448 13.778C8.69687 13.6617 8.66039 13.5454 8.62186 13.4296C8.61218 13.6333 8.65313 13.7478 8.48151 13.8746C8.30449 14.0052 8.26093 13.904 8.07572 13.8079C7.91805 13.7258 7.75388 13.6561 7.58802 13.5911C7.48974 13.5527 7.38513 13.5614 7.39201 13.4469C7.39648 13.3692 7.40114 13.2915 7.40467 13.2137C7.33766 13.2271 7.27046 13.2403 7.20327 13.2536C7.13514 13.2673 7.25557 13.5234 7.11485 13.569C6.81776 13.6651 6.43841 13.7938 6.17166 13.5603C6.06091 13.4633 5.88612 13.5931 5.72678 13.6124C5.52668 13.6366 5.32453 13.6229 5.12368 13.6346C5.05127 13.6031 4.9783 13.5735 4.90627 13.5417C4.80203 13.5803 4.69369 13.6079 4.58424 13.6281C4.36478 13.6685 4.14159 13.6799 3.91952 13.697C3.9521 13.4644 4.06658 13.1656 3.99901 12.9458C3.92399 12.7015 4.05113 12.4559 4.07104 12.2135C4.30912 12.3645 4.48019 12.5942 4.54552 12.863C4.8722 12.5895 5.31932 12.5536 5.70389 12.3949C5.65344 12.3071 5.60281 12.2197 5.55348 12.1315C5.63148 12.1286 5.70929 12.1252 5.78728 12.1219C5.71338 12.0574 5.63799 11.9946 5.56335 11.9308C5.72846 11.9207 5.88538 12.0224 6.05086 11.9963C6.3753 11.9454 6.03559 11.6903 5.92856 11.6059C5.80999 11.5125 5.94587 11.4324 6.03299 11.3399C6.11563 11.2519 6.20629 11.171 6.30587 11.101C6.40639 11.0303 6.51566 10.9717 6.63162 10.9286C6.79468 10.9928 6.9771 11.0285 7.14612 10.9622C6.79599 10.8561 6.59216 10.7121 6.26511 10.9584C6.12997 11.0602 6.00414 11.1731 5.86881 11.2746C5.74335 11.3689 5.64414 11.2575 5.51663 11.1875C5.66256 10.9989 5.65177 10.7551 5.71133 10.537C5.79547 10.2284 6.11284 10.0988 6.31518 9.86908C6.18265 9.91993 6.05402 9.98069 5.92726 10.0447C5.7884 10.1148 5.75024 10.1661 5.65084 10.2708C5.58103 10.3444 5.48815 10.392 5.38875 10.4158C5.24337 10.4504 5.1704 10.108 5.11791 9.98773C5.05071 10.0557 4.98389 10.124 4.91762 10.1927C5.05723 9.98989 4.99524 9.75187 4.95131 9.53081C4.89733 9.25889 4.77801 9.126 4.65032 8.88726C4.71286 8.93631 4.77411 8.98662 4.83479 9.03837C4.96732 9.1516 4.95913 9.08795 5.08682 8.99942C5.00027 8.93919 4.9152 8.87716 4.83088 8.81369C4.70058 8.71596 4.54608 8.75635 4.38451 8.74698C4.1187 8.73129 3.87001 8.646 3.61053 8.59299C3.35924 8.54178 3.10571 8.49201 2.86931 8.39302C2.80472 8.4628 2.7405 8.53294 2.67665 8.60345C2.5551 8.54358 2.43262 8.48534 2.31014 8.42764C2.27309 8.55674 2.23773 8.68675 2.20534 8.81712C2.02348 8.83425 1.84217 8.85571 1.6618 8.8851C1.4563 8.62562 1.35913 8.30701 1.26439 7.99831C1.40939 7.97577 1.55347 7.90094 1.6914 7.88813C1.91235 7.86722 2.11059 8.10181 2.30511 7.99488C2.51489 7.87966 2.72412 7.75055 2.9661 7.71142C3.01171 7.73685 3.04987 7.91608 3.07071 7.96693C3.27193 7.77345 3.00854 7.51416 3.38902 7.47629C3.61202 7.45393 3.29557 7.86199 3.29148 7.94746C3.36426 7.91446 3.43704 7.88146 3.51001 7.84828C3.6122 7.80176 3.5558 7.76516 3.60383 7.67879C3.66693 7.56519 3.82329 7.57222 3.93646 7.5834C4.01669 7.59115 4.09152 7.35819 4.21456 7.29039C4.34393 7.21934 4.50606 7.61586 4.57549 7.73396C4.58256 7.65426 4.59001 7.57439 4.59708 7.49469C4.60862 7.36865 4.72757 7.42851 4.83442 7.4341C5.10451 7.4487 5.37367 7.47233 5.64246 7.49955C5.75768 7.51109 5.8729 7.52318 5.98831 7.53562C6.14095 7.55185 6.19958 7.61478 6.2491 7.45628C6.32449 7.2152 6.42351 6.98043 6.47898 6.73375C6.30755 6.86376 6.14616 7.00531 5.98273 7.14451C5.82842 7.27632 5.55944 7.13423 5.38465 7.06247C5.18548 6.98115 4.99413 6.88342 4.797 6.79795C4.60918 6.71644 4.30447 7.02767 4.14792 7.14469C4.15555 7.02244 4.16449 6.9 4.17473 6.77793C4.22163 6.85078 4.26817 6.92363 4.31601 6.99593C4.63655 6.63909 5.00641 6.33237 5.42467 6.08841C5.60747 5.98184 5.79156 5.87419 5.9522 5.73697C6.11731 5.56495 6.37661 5.60119 6.59253 5.55864C6.41979 5.51338 6.24761 5.46686 6.0771 5.41439C5.84256 5.34208 5.8649 5.28798 5.82953 5.06566C5.74577 5.23804 5.66014 5.40934 5.57359 5.58028C5.46395 5.48327 5.14192 5.41619 5.15644 5.23209C5.1678 5.08477 5.32546 5.10911 5.43919 5.09595C5.65493 5.07016 5.68788 4.89021 5.78076 4.70863C5.65326 4.83413 5.52984 4.96342 5.4042 5.09054C5.39992 5.00615 5.39657 4.92158 5.39191 4.83702C5.27129 4.93529 5.15123 5.03464 5.0321 5.13472C5.05834 4.92158 5.02019 4.70196 4.86736 4.53805C4.87034 4.66013 4.87332 4.78202 4.87611 4.90373C4.76145 4.89075 4.64623 4.87813 4.531 4.86821C4.52672 4.74415 4.5243 4.6201 4.5243 4.49604C4.4411 4.59756 4.40089 4.64264 4.27506 4.68916C4.09115 4.75696 4.07626 4.78725 3.98858 4.61252C3.98114 4.70809 3.97444 4.80402 3.96848 4.89959C3.80449 4.85613 3.63882 4.81213 3.48749 4.7355C3.47725 4.85595 3.45249 4.97514 3.41489 5.09054C3.27138 5.10154 3.12749 5.09649 2.9836 5.09775C2.65506 5.10046 2.52159 5.17781 2.26993 5.36209C1.84255 5.67494 1.61862 4.9737 1.20352 4.91509C1.08085 4.89778 0.56356 4.95476 0.560582 4.81195C0.55872 4.73099 0.631688 4.68231 0.696094 4.64696C0.852267 4.5624 0.873115 4.51047 0.941802 4.34313C1.01291 4.17021 1.00174 4.09935 1.18993 4.19654C1.28952 4.24811 1.37942 4.315 1.46468 4.38641C1.65733 4.54761 1.83175 4.73676 2.06387 4.84657C1.85986 4.58133 1.59181 4.34998 1.48366 4.0265C1.64728 4.10476 1.80941 4.18554 1.96931 4.27047C1.80848 4.13577 1.686 3.96176 1.60931 3.76991C1.57636 3.68769 1.55142 3.60204 1.53485 3.51512C1.63016 3.42316 1.63388 3.36276 1.76064 3.4439C1.97247 3.57932 2.17593 3.72663 2.38813 3.86151C2.50949 3.93905 2.63384 4.01225 2.76358 4.07627C2.73994 4.163 2.71555 4.24937 2.69322 4.33646C2.7902 4.32997 2.88736 4.32402 2.98434 4.31915C3.1193 4.31248 3.11502 4.26271 3.19227 4.16372C3.03646 4.13379 2.89835 4.05373 2.81142 3.92318C2.94079 3.87071 3.07779 3.83915 3.21553 3.81499C3.37003 3.78758 3.42271 3.82202 3.42271 3.66424C3.17402 3.67921 2.8278 3.77911 2.594 3.6702C2.36449 3.56327 2.19975 3.33499 2.16736 3.0912C2.12865 2.80162 2.29282 2.77637 2.50652 2.93054C2.75055 3.10653 3.02995 3.17974 3.31475 3.26827C2.90747 3.04901 2.54672 2.74752 2.28482 2.37265C2.14652 2.17466 2.50707 2.12922 2.65003 2.17754C2.85814 2.24751 3.01878 2.40258 3.21665 2.49147C3.01859 2.29529 2.80044 2.11209 2.65338 1.87425C2.83915 1.83981 3.02176 1.90184 3.19562 1.95846C3.06104 1.8647 2.92515 1.77274 2.79671 1.6714C3.12544 1.24712 3.98765 1.71089 3.82478 2.19684C3.89104 2.1413 3.95787 2.0863 4.02414 2.03059C4.03903 2.10957 4.05355 2.18872 4.06751 2.2677C4.08761 2.37914 4.13433 2.33027 4.21977 2.38743C4.34263 2.46947 4.32476 2.62833 4.28809 2.74932C4.41727 2.71308 4.44184 2.73706 4.46716 2.59912C4.4988 2.42728 4.5109 2.17989 4.72031 2.37283C4.82306 2.46731 4.87797 2.60237 4.98873 2.69C4.9005 2.94334 4.77913 3.18443 4.69016 3.43759C4.84633 3.22391 4.93847 2.97544 5.03787 2.73418C5.35301 2.9987 5.09632 3.36799 4.94759 3.64477C5.09874 3.54343 5.2054 3.39521 5.28004 3.23455C5.31727 3.15413 5.34742 3.07029 5.37293 2.98554C5.30331 2.86076 5.24058 2.73129 5.19758 2.59533C5.16538 2.4931 5.14453 2.38779 5.14025 2.28104C5.06542 2.21739 4.99115 2.15374 4.91706 2.08919C4.82269 2.00715 4.83237 2.03023 4.72701 2.06954C4.67061 2.00426 4.59764 1.95377 4.52635 1.90527C4.33146 1.77238 3.90668 1.39443 4.3752 1.28733C4.55576 1.24585 4.74451 1.29328 4.89901 1.38758C5.15458 1.54337 5.15793 1.20943 5.1758 1.04336C5.03396 1.09529 4.89007 1.14145 4.74711 1.19014C4.77373 1.07636 4.80128 0.962759 4.82939 0.84916C4.61886 0.915697 4.40573 0.97466 4.19315 1.03489C4.00794 1.087 3.82236 0.872421 3.67549 0.760806C3.81398 0.718972 3.95284 0.678582 4.09115 0.636749C4.02023 0.545689 3.94838 0.455532 3.87727 0.364833C3.98542 0.35149 4.09692 0.344638 4.19967 0.30623C4.35417 0.248529 4.32941 0.121948 4.48968 0.219318C4.62221 0.299919 4.72701 0.421272 4.87369 0.360505C5.01814 0.300821 5.16966 0.314164 5.29158 0.413338C5.29158 0.335982 5.28972 0.258807 5.28842 0.181452C5.40122 0.354194 5.51868 0.524592 5.64562 0.687958C5.70929 0.769821 5.77537 0.850242 5.84405 0.928138C5.81148 1.02533 5.78095 1.12324 5.74838 1.22043C5.90474 1.25487 6.15268 1.26262 6.23104 1.40038C6.29731 1.51651 6.38871 1.62055 6.50691 1.68961C6.55437 1.71738 6.60482 1.73902 6.65805 1.75434C6.79245 1.79275 6.73996 1.85244 6.75168 1.97974C6.77048 2.18512 6.82391 2.38797 6.92554 2.57009C6.98808 2.45343 7.04914 2.33622 7.11168 2.21938C7.13644 2.51131 7.41398 2.61355 7.66527 2.68657C7.45009 2.7935 7.21462 2.85048 6.98473 2.91864C7.19489 2.91972 7.6541 2.85715 7.66192 3.16351C7.66937 3.45454 7.52418 3.73006 7.28871 3.90803C7.36893 3.95888 7.44804 3.96465 7.4043 4.06022C7.36018 4.15633 7.31607 4.25207 7.27214 4.34818C7.1504 4.28399 7.02792 4.22142 6.90674 4.15633C6.82018 4.02289 6.71762 3.89956 6.60147 3.78938C6.67369 3.96339 6.72916 4.14461 6.8187 4.31158C6.91195 4.48486 7.17441 4.53769 7.34883 4.61685C7.30453 4.71278 7.25967 4.80799 7.21499 4.90373C7.31141 4.82656 7.40616 4.74776 7.50147 4.66986C7.70548 4.98668 7.44171 5.26743 7.22523 5.49192C7.34939 5.44901 7.47336 5.40645 7.59733 5.36354C7.70008 5.47263 7.75983 5.61778 7.7589 5.76582C7.771 6.15566 7.80786 6.55272 7.95807 6.91822C7.90726 6.43695 7.99158 5.95425 7.95584 5.47245C8.03197 5.55341 8.10717 5.63545 8.18312 5.71641C7.99772 5.13616 8.44298 4.58007 8.95934 4.3352C9.01313 4.52705 9.0176 4.8188 9.26368 4.77553C9.41557 4.74902 9.56262 4.67022 9.64564 4.54094C9.85431 4.21547 9.76049 3.77027 9.6624 3.42785C9.59836 3.20408 9.2983 2.45072 9.58906 2.33171C9.72903 2.27455 10.0079 2.1175 10.1333 2.21271C10.2925 2.33352 10.3844 2.51059 10.455 2.68982C10.5168 2.84579 10.5648 3.00718 10.6389 3.1581C10.75 3.29838 10.9256 3.36799 11.0546 3.48934C11.1327 3.65144 11.0724 3.97276 11.2684 3.98809C11.3745 3.99621 11.4801 4.00558 11.5856 4.01694C11.6511 3.87593 11.7343 3.77802 11.6871 3.62512C11.621 3.41234 11.545 3.20246 11.4589 2.99636C11.5086 2.89808 11.5517 2.79639 11.5901 2.69325C11.6446 2.54647 11.6269 2.38437 11.8021 2.37932C11.9106 2.37625 12.019 2.36976 12.1271 2.36092C12.1746 2.28465 12.2239 2.20928 12.2779 2.13715C12.4039 1.96946 12.5603 1.8225 12.7596 1.74046C12.7436 1.81277 12.7278 1.88489 12.7118 1.95738C12.7907 1.89156 12.8707 1.82683 12.9536 1.76534C13.0772 1.95684 13.2866 2.05222 13.4061 2.24336C13.5377 2.45361 13.5921 2.6992 13.5103 2.93703C13.6066 2.95615 13.7026 2.97508 13.7989 2.99419C13.4889 2.75906 13.8934 2.63969 13.8787 2.37896C13.8701 2.22659 13.845 2.05042 13.9442 1.91825C14.0658 1.75615 14.3491 1.86812 14.5068 1.91537C14.8707 2.02446 15.1074 2.33604 15.3386 2.62617C15.4036 2.70785 15.4189 2.79639 15.5322 2.7724C15.6111 2.75564 15.6903 2.73887 15.769 2.72228C15.8652 2.53962 15.9656 2.35822 16.0387 2.16546C16.1013 2.0012 16.0728 1.78572 16.2496 1.73361C16.363 1.70025 16.4774 1.66941 16.5945 1.65084C16.6738 1.71017 16.7416 1.78193 16.8051 1.8564C16.8691 1.93123 16.9296 2.00895 16.9964 2.08144C17.082 2.0378 17.169 1.99723 17.2553 1.95503C17.4275 1.87047 17.5995 1.77796 17.738 1.64579C17.9945 1.40075 17.6863 0.843029 17.6228 0.54605C17.599 0.434615 17.5746 0.323721 17.5444 0.213729C17.6395 0.169551 17.743 0.148274 17.8473 0.136554C18.0546 0.113293 18.2707 0.123391 18.4656 0.0390029Z" fill="#0A0D14"/>
</svg>
