<svg width="23" height="25" viewBox="0 0 23 25" fill="none" xmlns="http://www.w3.org/2000/svg">
<path fill-rule="evenodd" clip-rule="evenodd" d="M18.2821 0.711323C18.2317 0.554385 18.2377 0.303671 18.3943 0.188656C18.4699 0.132666 18.5639 0.147009 18.6411 0.190863C18.8144 0.289052 18.7047 0.362971 18.6408 0.50005C18.3691 1.08229 18.2645 1.67722 18.2575 2.30718C18.4835 1.9227 18.6439 1.51229 18.7999 1.1027C18.8869 0.874604 18.9099 0.388621 19.289 0.49674C19.2736 0.854746 19.2758 1.21303 19.2723 1.57131C19.3927 1.40775 19.5118 1.24337 19.6341 1.08091C19.6353 0.862745 19.6275 0.6443 19.6243 0.426132C19.6202 0.171832 19.8856 0.105637 20.1298 0C20.2757 0.0926733 20.4216 0.185071 20.5672 0.277193C20.4355 0.426683 20.3044 0.577278 20.1714 0.726217C20.2962 0.917907 20.4115 1.11346 20.5392 1.30377C20.5688 1.03982 20.5855 0.77476 20.6343 0.512186C20.686 0.23389 20.9709 0.362419 21.2 0.447645C21.431 0.533975 21.6875 0.540318 21.893 0.652023C22.1423 0.787172 22.3916 0.922596 22.6377 1.06133C22.3862 1.28667 22.1549 1.53049 21.9535 1.79224C21.5848 1.76603 21.2164 1.73128 20.8464 1.72163C21.2243 1.86505 21.6138 1.98255 21.9948 2.11935C21.9507 2.19989 21.9069 2.2807 21.8628 2.36179C21.9308 2.36538 21.9989 2.36924 22.0663 2.37337C22.0515 2.27463 22.0364 2.17644 22.0213 2.07798C22.47 2.09535 22.9273 2.19603 22.9075 2.67043C22.7165 2.6263 22.5255 2.58051 22.3342 2.53638C22.2816 2.77441 22.1139 2.97106 21.9384 3.15117C21.8117 3.28052 21.9003 3.84594 21.6248 3.83353C21.3015 3.81919 21.4345 3.50669 21.4937 3.32659C21.5766 3.07532 21.708 2.97465 21.5423 2.74627C21.2883 2.39544 20.6473 2.27684 20.2905 1.96241C20.1358 2.1097 20.0157 2.30497 19.791 2.33807C19.6432 2.36014 19.5099 2.4233 19.4078 2.51873C19.1711 2.74021 19.1053 3.07504 19.0883 3.36685C19.0709 3.66584 19.157 3.97061 19.1198 4.26601C19.0993 4.42653 19.0095 4.56085 18.8516 4.64746C18.8213 4.81874 18.7945 4.99057 18.7668 5.1624C18.5544 5.07552 18.3423 4.98864 18.1309 4.9001C17.7965 4.75971 17.8094 4.77268 17.5797 5.01125C17.3982 5.19964 17.3358 5.1544 17.0537 5.12268C16.638 5.07635 16.6254 4.99857 16.4316 4.68386C16.3349 4.52748 15.8965 3.73589 15.6107 4.0848C15.5335 4.17857 15.5152 4.30876 15.5177 4.42101C15.5215 4.57299 15.0522 4.54872 14.8805 4.56968C15.0116 4.79943 15.0151 5.05869 14.9274 5.30058C14.8499 5.51517 14.8858 5.70603 14.9066 5.93137C14.4264 5.84421 13.9502 5.74161 13.4715 5.64756C13.0738 5.92723 12.544 5.78822 12.082 5.85552C12.0921 5.71596 12.1038 5.57612 12.1148 5.43683C12.1274 5.27273 12.498 5.31382 12.6682 5.2992C12.6222 5.24901 12.6086 5.17261 12.5592 5.12434C12.9263 5.22666 12.8302 5.02118 12.8166 4.80357C12.8062 4.63918 12.9981 4.51286 13.0914 4.38516C13.2525 4.16561 13.3754 3.92565 13.4642 3.67687C13.1872 3.66887 13.0886 3.92207 13.0546 4.11872C13.0205 4.3162 13.0905 4.35509 12.868 4.46211C12.6493 4.56747 12.4303 4.67338 12.2062 4.7713C12.2966 4.49631 12.3896 4.22188 12.5147 3.9571C12.6562 3.65784 12.6751 3.64681 13.0199 3.66418C13.4047 3.68321 13.7019 2.82929 13.5925 2.55624C13.7318 2.53473 13.8714 2.51376 14.011 2.49363C13.9965 2.43929 13.982 2.38468 13.9675 2.33035C14.1947 2.34359 14.422 2.35848 14.6482 2.37834C14.5304 2.68173 14.4122 2.9854 14.2937 3.28935C14.6659 3.05684 14.8228 2.97299 15.2744 2.93107C15.0945 2.74241 14.9129 2.55569 14.7314 2.36813C14.8553 2.32621 14.9791 2.28484 15.103 2.24291C15.1225 2.6354 15.4597 2.76062 15.8666 2.70159C15.7566 2.5783 15.6447 2.45639 15.5335 2.33393C15.3913 2.17727 15.6649 1.96296 15.8458 2.02806C16.0582 2.10473 16.2885 2.10721 16.4685 1.96655C16.6311 1.83912 16.5775 1.65929 16.5775 1.48222C16.3396 1.67308 16.0503 1.74231 15.9684 1.39975C16.3399 1.31287 16.673 1.13801 16.979 0.939145C16.91 1.04147 16.8413 1.14352 16.7729 1.24613C16.6144 1.48332 16.6837 1.46595 16.9185 1.64219C17.0017 1.44637 17.0865 1.25081 17.1694 1.05443C17.3364 1.15621 17.5015 1.26019 17.6673 1.36307C17.6175 1.18407 17.5668 1.00562 17.5163 0.826613C17.5907 0.855022 17.6884 0.833508 17.7637 0.859711C17.7524 0.653954 17.7429 0.447369 17.735 0.241061C17.794 0.355799 17.8545 0.470538 17.9144 0.585276C17.9922 0.734215 18.1063 0.696705 18.2821 0.711323Z" fill="#0A0D14"/>
<path fill-rule="evenodd" clip-rule="evenodd" d="M11.0152 5.77981C11.1674 5.42897 11.2251 5.03842 11.4826 4.72813C11.5053 5.00339 11.5299 5.27838 11.5525 5.55364C11.6698 5.27149 11.7905 4.99043 11.9128 4.71021C12.2049 5.06711 11.9846 5.44194 11.7892 5.78477C11.6354 6.05342 11.0871 6.10168 10.7691 6.17422C10.4035 6.25779 10.032 6.34192 9.69479 6.49499C9.52209 6.57332 9.05379 7.01104 8.92773 6.92995C9.18048 6.65414 9.437 6.35543 9.80036 6.18415C10.1634 6.01315 10.6232 5.90779 11.0152 5.77981Z" fill="#0A0D14"/>
<path fill-rule="evenodd" clip-rule="evenodd" d="M11.9257 5.95341C12.2638 5.95921 12.6023 5.90873 12.9401 5.94404C13.1084 5.96169 13.2732 6.00278 13.4213 6.07698C13.3315 6.30121 13.2426 6.52545 13.1513 6.74858C12.9997 6.67136 12.8484 6.5933 12.6971 6.51607C12.5348 6.61537 12.4044 6.74665 12.2972 6.89146C12.0836 7.18216 11.9613 7.51535 11.7523 7.80826C12.2254 8.36237 11.5998 8.86711 11.3096 9.34564C11.1832 9.55443 11.2276 9.91078 11.0486 10.0708C10.9538 10.1554 10.8154 10.1935 10.6878 10.223C10.3541 10.2994 10.4048 10.295 10.4228 10.6061C10.4735 11.5031 10.1029 12.3777 9.54415 13.1174C9.87946 13.236 10.0102 13.5038 9.96581 13.8061C9.94469 13.9528 9.89332 14.0949 9.83061 14.2314C9.5974 14.1749 9.36168 14.1252 9.12469 14.0833C8.73549 14.0143 8.4276 14.3985 8.25616 14.6708C8.10395 14.9127 7.75288 15.4505 7.86822 15.7125C8.03556 16.0937 7.84364 16.5218 7.92054 16.9393C7.96277 17.1699 8.08126 17.3569 8.02107 17.5878C7.96371 17.8059 7.90131 18.0247 7.87862 18.2484C7.84616 18.5669 8.29965 18.7801 8.43611 19.0758C8.50323 19.2206 8.50859 19.3762 8.44871 19.524C8.36709 19.7264 8.08031 19.7129 7.86192 19.7601C7.99712 20.0949 8.1175 20.4416 8.13956 20.7982C8.15689 21.0771 8.0926 21.7335 7.7075 21.813C7.51842 21.8516 7.39551 21.8257 7.33595 22.0024C7.26441 22.2162 7.24487 22.4396 7.22659 22.6605C7.19382 23.053 7.15852 23.4689 6.85315 23.782C6.78445 23.6135 6.75262 23.3492 6.5566 23.2971C6.3546 23.2431 6.19892 23.1098 6.10532 22.9471C5.90962 22.6081 5.93168 22.0987 6.26321 21.8262C6.03032 21.8706 5.97296 21.7059 5.9197 21.9865C5.87369 22.2286 5.86833 22.4752 5.82264 22.7174C5.78577 22.9132 5.72148 23.114 5.57525 23.2704C5.50057 23.3498 5.40728 23.4132 5.30234 23.4587C5.12303 23.5368 5.06157 23.3989 4.93552 23.2919C4.53308 23.8377 3.90248 24.3703 3.27535 24.7313C2.96746 24.9087 2.51744 25.0582 2.14714 24.9776C1.94734 24.9343 1.76519 24.8466 1.57705 24.7766C1.37694 24.7021 1.4636 24.6538 1.53199 24.493C1.03091 24.3797 0.426787 24.03 0.342014 23.5473C0.322475 23.4367 0.336341 23.3239 0.379516 23.2185C0.449792 23.0472 0.61209 23.0955 0.797708 23.0847C0.980175 23.0745 0.92471 22.8666 0.939837 22.724C0.819138 22.7813 0.697493 22.8371 0.575849 22.8925C0.76777 22.6812 0.959376 22.4697 1.15098 22.2587C0.721759 22.364 0.430569 22.4142 0.100931 22.6729C0.0454656 22.3955 0.248102 22.0874 0.243374 21.7835C0.237702 21.4254 0.124251 21.3355 0.534565 21.298C0.456725 21.1758 0.379831 21.0534 0.304512 20.9301C0.53425 20.9566 0.764303 20.9814 0.994357 21.0076C0.871767 20.8614 0.711044 20.7417 0.521644 20.6656C0.225096 20.5462 0.22289 20.593 0.191376 20.3032C0.254404 20.3382 0.345165 20.3354 0.408193 20.3705C0.393067 20.1294 0.390546 19.8878 0.391491 19.6462C0.392121 19.5256 0.393382 19.4054 0.394958 19.2849C0.505887 19.1861 0.571752 19.0603 0.598539 18.9249C0.648962 18.6692 0.578055 18.5512 0.763043 18.3363C0.906432 18.1703 0.65684 17.7949 0.575849 17.6049C0.917777 17.5555 1.07346 17.3382 0.977654 17.0469C1.35236 17.0966 1.60636 16.8428 1.84114 16.6313C1.86541 16.8629 2.07309 16.8544 2.28139 16.8326C2.60189 16.7998 2.74812 16.9575 3.02355 17.0519C2.71282 16.8177 2.27793 16.6823 2.10145 16.3339C2.5584 16.3389 3.00969 16.4095 3.45876 16.4776C3.24258 16.3063 2.98164 16.1855 2.69927 16.1227C2.96651 15.8805 3.29773 15.6979 3.65699 15.5796C3.65699 15.7042 3.65888 15.8284 3.65888 15.9525C3.70709 15.9627 3.80416 15.9599 3.85111 15.9461C3.8155 15.8358 3.77958 15.7252 3.74397 15.6146C4.09346 15.6383 4.39725 15.7696 4.35849 16.1193C4.4814 16.0245 4.60273 16.0203 4.48045 15.8893C4.36196 15.7616 4.24252 15.6342 4.12497 15.5054C4.34715 15.5316 4.56995 15.5548 4.79213 15.5812C4.67143 15.48 4.55104 15.3777 4.43003 15.2762C4.53466 15.2431 5.21127 15.0823 5.19866 15.0211C5.18479 14.9538 4.45556 15.061 4.34179 15.0732C4.58949 14.8294 4.66607 14.5268 4.9601 14.3337C4.93741 14.4636 4.91314 14.5933 4.89045 14.7232C5.14635 14.7422 5.40098 14.8443 5.64269 14.9146C5.6928 14.6906 5.74133 14.4667 5.79176 14.243C5.80814 14.3985 5.82611 14.5541 5.84407 14.7094C5.86644 14.903 6.30796 14.9816 6.5024 15.0583C6.23043 14.8263 6.03851 14.5365 5.86329 14.2446C6.09996 14.3475 6.06624 14.1829 6.13274 14.0347C6.21814 13.8444 6.36122 13.6803 6.52604 13.538C6.85725 13.2514 7.26378 13.0311 7.64132 12.7958C7.37849 12.6328 7.10085 12.4891 6.84401 12.3186C7.15695 12.3796 7.46043 12.4725 7.76013 12.5713C7.75351 12.3479 7.62966 12.09 7.924 12.0812C8.28011 12.0704 8.63811 12.0492 8.98603 11.9772C8.81396 11.9573 8.64158 11.9405 8.46951 11.9226C8.69799 11.7529 8.69074 11.5397 8.62677 11.305C8.55649 11.0488 8.75818 10.7584 8.69358 10.4671C8.80199 10.5156 8.9104 10.5639 9.01975 10.6105C9.03015 10.4048 9.04212 10.199 9.05189 9.99325C9.21703 10.0531 9.38216 10.113 9.54761 10.172C9.74205 10.2415 9.92956 9.97119 10.0704 9.85314C9.94627 9.9083 9.82431 9.96595 9.70077 10.0214C9.45874 9.97395 9.21608 9.92899 8.97279 9.88762C9.15778 9.56905 9.36231 9.25959 9.56904 8.95123C9.64373 8.83925 9.72031 8.72892 9.79783 8.61832C9.9261 8.43573 9.92547 8.43684 10.1681 8.47683C10.1703 8.23632 10.413 8.02091 10.5334 7.81543C10.7114 7.51148 10.8277 7.17885 10.7735 6.83464C10.9043 6.84126 11.0351 6.84677 11.1655 6.85119C11.037 6.52738 11.4233 6.39306 11.6313 6.20413C11.6698 6.48932 11.7694 6.76513 11.8803 7.03433C11.8841 6.80788 11.8897 6.58089 11.8935 6.35445C11.9405 6.31418 12.1636 6.32411 12.2329 6.31638C12.071 6.29459 11.9087 6.27418 11.7467 6.25212C11.8062 6.15255 11.8661 6.05298 11.9257 5.95341Z" fill="#0A0D14"/>
<path fill-rule="evenodd" clip-rule="evenodd" d="M8.01369 11.3581C8.42653 11.3386 7.99478 11.926 7.92104 11.5052L8.01369 11.3581Z" fill="#0A0D14"/>
<path fill-rule="evenodd" clip-rule="evenodd" d="M3.68433 14.8305C3.9522 14.7646 4.05021 14.8454 3.98025 15.0749C3.71458 15.1359 3.61657 15.0553 3.68433 14.8305Z" fill="#0A0D14"/>
</svg>
