<svg width="18" height="18" viewBox="0 0 18 18" fill="none" xmlns="http://www.w3.org/2000/svg">
<path d="M4.27734 18V6.6123H0.735352V18H4.27734ZM2.4873 5.08887C3.62988 5.08887 4.54395 4.13672 4.54395 2.99414C4.54395 1.88965 3.62988 0.975586 2.4873 0.975586C1.38281 0.975586 0.46875 1.88965 0.46875 2.99414C0.46875 4.13672 1.38281 5.08887 2.4873 5.08887ZM17.4932 18H17.5312V11.7539C17.5312 8.70703 16.8457 6.3457 13.2656 6.3457C11.5518 6.3457 10.4092 7.29785 9.91406 8.17383H9.87598V6.6123H6.48633V18H10.0283V12.3633C10.0283 10.8779 10.2949 9.46875 12.123 9.46875C13.9512 9.46875 13.9893 11.1445 13.9893 12.4775V18H17.4932Z" fill="white"/>
</svg>
