<svg width="21" height="15" viewBox="0 0 21 15" fill="none" xmlns="http://www.w3.org/2000/svg">
<path d="M20.4404 2.69824C20.2119 1.78418 19.4883 1.06055 18.6123 0.832031C16.9746 0.375 10.5 0.375 10.5 0.375C10.5 0.375 3.9873 0.375 2.34961 0.832031C1.47363 1.06055 0.75 1.78418 0.521484 2.69824C0.0644531 4.29785 0.0644531 7.72559 0.0644531 7.72559C0.0644531 7.72559 0.0644531 11.1152 0.521484 12.7529C0.75 13.667 1.47363 14.3525 2.34961 14.5811C3.9873 15 10.5 15 10.5 15C10.5 15 16.9746 15 18.6123 14.5811C19.4883 14.3525 20.2119 13.667 20.4404 12.7529C20.8975 11.1152 20.8975 7.72559 20.8975 7.72559C20.8975 7.72559 20.8975 4.29785 20.4404 2.69824ZM8.36719 10.8105V4.64062L13.7754 7.72559L8.36719 10.8105Z" fill="white"/>
</svg>
