<svg width="14" height="14" viewBox="0 0 14 14" fill="none" xmlns="http://www.w3.org/2000/svg">
<path d="M10.2222 7.93896H10.6284C10.73 7.93896 10.8315 7.86279 10.8315 7.73584V7.32959C10.8315 7.22803 10.73 7.12646 10.6284 7.12646H10.2222C10.0952 7.12646 10.019 7.22803 10.019 7.32959V7.73584C10.019 7.86279 10.0952 7.93896 10.2222 7.93896ZM10.2222 11.189H10.6284C10.73 11.189 10.8315 11.1128 10.8315 10.9858V10.5796C10.8315 10.478 10.73 10.3765 10.6284 10.3765H10.2222C10.0952 10.3765 10.019 10.478 10.019 10.5796V10.9858C10.019 11.1128 10.0952 11.189 10.2222 11.189ZM2.30029 3.47021H1.48779C0.802246 3.47021 0.269043 4.02881 0.269043 4.68896V12.0015C0.269043 12.687 0.802246 13.2202 1.48779 13.2202H2.30029C2.96045 13.2202 3.51904 12.687 3.51904 12.0015V4.68896C3.51904 4.02881 2.96045 3.47021 2.30029 3.47021ZM2.70654 12.0015C2.70654 12.23 2.50342 12.4077 2.30029 12.4077H1.48779C1.25928 12.4077 1.08154 12.23 1.08154 12.0015V4.68896C1.08154 4.48584 1.25928 4.28271 1.48779 4.28271H2.30029C2.50342 4.28271 2.70654 4.48584 2.70654 4.68896V12.0015ZM10.2222 9.56396H10.6284C10.73 9.56396 10.8315 9.48779 10.8315 9.36084V8.95459C10.8315 8.85303 10.73 8.75146 10.6284 8.75146H10.2222C10.0952 8.75146 10.019 8.85303 10.019 8.95459V9.36084C10.019 9.48779 10.0952 9.56396 10.2222 9.56396ZM6.97217 11.189H7.37842C7.47998 11.189 7.58154 11.1128 7.58154 10.9858V10.5796C7.58154 10.478 7.47998 10.3765 7.37842 10.3765H6.97217C6.84521 10.3765 6.76904 10.478 6.76904 10.5796V10.9858C6.76904 11.1128 6.84521 11.189 6.97217 11.189ZM6.97217 9.56396H7.37842C7.47998 9.56396 7.58154 9.48779 7.58154 9.36084V8.95459C7.58154 8.85303 7.47998 8.75146 7.37842 8.75146H6.97217C6.84521 8.75146 6.76904 8.85303 6.76904 8.95459V9.36084C6.76904 9.48779 6.84521 9.56396 6.97217 9.56396ZM12.4565 4.35889V3.01318C12.4312 2.78467 12.355 2.58154 12.2026 2.4292L10.2476 0.474121C10.0952 0.321777 9.89209 0.245605 9.66357 0.220215H5.55029C4.86475 0.220215 4.33154 0.778809 4.33154 1.43896V12.0015C4.33154 12.687 4.86475 13.2202 5.55029 13.2202H12.0503C12.7104 13.2202 13.269 12.687 13.269 12.0015V5.50146C13.2437 4.99365 12.9136 4.53662 12.4565 4.35889ZM10.019 1.38818L11.2886 2.65771H10.019V1.38818ZM5.14404 1.43896C5.14404 1.23584 5.32178 1.03271 5.55029 1.03271H9.20654V2.65771C9.20654 3.11475 9.56201 3.47021 10.019 3.47021H11.644V5.09521H5.14404V1.43896ZM12.4565 12.0015C12.4565 12.23 12.2534 12.4077 12.0503 12.4077H5.55029C5.32178 12.4077 5.14404 12.23 5.14404 12.0015V5.90771H12.4565V12.0015ZM8.59717 11.189H9.00342C9.10498 11.189 9.20654 11.1128 9.20654 10.9858V10.5796C9.20654 10.478 9.10498 10.3765 9.00342 10.3765H8.59717C8.47021 10.3765 8.39404 10.478 8.39404 10.5796V10.9858C8.39404 11.1128 8.47021 11.189 8.59717 11.189ZM8.59717 9.56396H9.00342C9.10498 9.56396 9.20654 9.48779 9.20654 9.36084V8.95459C9.20654 8.85303 9.10498 8.75146 9.00342 8.75146H8.59717C8.47021 8.75146 8.39404 8.85303 8.39404 8.95459V9.36084C8.39404 9.48779 8.47021 9.56396 8.59717 9.56396ZM8.59717 7.93896H9.00342C9.10498 7.93896 9.20654 7.86279 9.20654 7.73584V7.32959C9.20654 7.22803 9.10498 7.12646 9.00342 7.12646H8.59717C8.47021 7.12646 8.39404 7.22803 8.39404 7.32959V7.73584C8.39404 7.86279 8.47021 7.93896 8.59717 7.93896ZM6.97217 7.93896H7.37842C7.47998 7.93896 7.58154 7.86279 7.58154 7.73584V7.32959C7.58154 7.22803 7.47998 7.12646 7.37842 7.12646H6.97217C6.84521 7.12646 6.76904 7.22803 6.76904 7.32959V7.73584C6.76904 7.86279 6.84521 7.93896 6.97217 7.93896Z" fill="white"/>
</svg>
