<svg width="19" height="18" viewBox="0 0 19 18" fill="none" xmlns="http://www.w3.org/2000/svg">
<path d="M9.5 4.30762C7.0625 4.30762 5.12012 6.28809 5.12012 8.6875C5.12012 11.125 7.0625 13.0674 9.5 13.0674C11.8994 13.0674 13.8799 11.125 13.8799 8.6875C13.8799 6.28809 11.8994 4.30762 9.5 4.30762ZM9.5 11.5439C7.93848 11.5439 6.64355 10.2871 6.64355 8.6875C6.64355 7.12598 7.90039 5.86914 9.5 5.86914C11.0615 5.86914 12.3184 7.12598 12.3184 8.6875C12.3184 10.2871 11.0615 11.5439 9.5 11.5439ZM15.0605 4.15527C15.0605 3.58398 14.6035 3.12695 14.0322 3.12695C13.4609 3.12695 13.0039 3.58398 13.0039 4.15527C13.0039 4.72656 13.4609 5.18359 14.0322 5.18359C14.6035 5.18359 15.0605 4.72656 15.0605 4.15527ZM17.9551 5.18359C17.8789 3.8125 17.5742 2.59375 16.584 1.60352C15.5938 0.613281 14.375 0.308594 13.0039 0.232422C11.5947 0.15625 7.36719 0.15625 5.95801 0.232422C4.58691 0.308594 3.40625 0.613281 2.37793 1.60352C1.3877 2.59375 1.08301 3.8125 1.00684 5.18359C0.930664 6.59277 0.930664 10.8203 1.00684 12.2295C1.08301 13.6006 1.3877 14.7812 2.37793 15.8096C3.40625 16.7998 4.58691 17.1045 5.95801 17.1807C7.36719 17.2568 11.5947 17.2568 13.0039 17.1807C14.375 17.1045 15.5938 16.7998 16.584 15.8096C17.5742 14.7812 17.8789 13.6006 17.9551 12.2295C18.0312 10.8203 18.0312 6.59277 17.9551 5.18359ZM16.127 13.7148C15.8604 14.4766 15.251 15.0479 14.5273 15.3525C13.3848 15.8096 10.7188 15.6953 9.5 15.6953C8.24316 15.6953 5.57715 15.8096 4.47266 15.3525C3.71094 15.0479 3.13965 14.4766 2.83496 13.7148C2.37793 12.6104 2.49219 9.94434 2.49219 8.6875C2.49219 7.46875 2.37793 4.80273 2.83496 3.66016C3.13965 2.93652 3.71094 2.36523 4.47266 2.06055C5.57715 1.60352 8.24316 1.71777 9.5 1.71777C10.7188 1.71777 13.3848 1.60352 14.5273 2.06055C15.251 2.32715 15.8223 2.93652 16.127 3.66016C16.584 4.80273 16.4697 7.46875 16.4697 8.6875C16.4697 9.94434 16.584 12.6104 16.127 13.7148Z" fill="white"/>
</svg>
