<svg width="9" height="14" viewBox="0 0 9 14" fill="none" xmlns="http://www.w3.org/2000/svg">
<path d="M5.58154 10.5813C5.58154 10.1497 5.20068 9.7688 4.76904 9.7688C4.31201 9.7688 3.95654 10.1497 3.95654 10.5813C3.95654 11.0383 4.31201 11.3938 4.76904 11.3938C5.20068 11.3938 5.58154 11.0383 5.58154 10.5813ZM8.83154 1.23755C8.83154 0.577393 8.27295 0.0187988 7.61279 0.0187988H1.92529C1.23975 0.0187988 0.706543 0.577393 0.706543 1.23755V11.8C0.706543 12.4856 1.23975 13.0188 1.92529 13.0188H7.61279C8.27295 13.0188 8.83154 12.4856 8.83154 11.8V1.23755ZM8.01904 1.23755V11.8C8.01904 12.0286 7.81592 12.2063 7.61279 12.2063H1.92529C1.69678 12.2063 1.51904 12.0286 1.51904 11.8V1.23755C1.51904 1.03442 1.69678 0.831299 1.92529 0.831299H7.61279C7.81592 0.831299 8.01904 1.03442 8.01904 1.23755Z" fill="white"/>
</svg>
