<svg width="21" height="17" viewBox="0 0 21 17" fill="none" xmlns="http://www.w3.org/2000/svg">
<path d="M18.2314 4.72656C18.9932 4.15527 19.6787 3.46973 20.2119 2.66992C19.5264 2.97461 18.7266 3.20312 17.9268 3.2793C18.7646 2.78418 19.374 2.02246 19.6787 1.07031C18.917 1.52734 18.041 1.87012 17.165 2.06055C16.4033 1.26074 15.375 0.803711 14.2324 0.803711C12.0234 0.803711 10.2334 2.59375 10.2334 4.80273C10.2334 5.10742 10.2715 5.41211 10.3477 5.7168C7.03418 5.52637 4.06348 3.92676 2.08301 1.52734C1.74023 2.09863 1.5498 2.78418 1.5498 3.5459C1.5498 4.91699 2.23535 6.13574 3.33984 6.85938C2.69238 6.82129 2.04492 6.66895 1.51172 6.36426V6.40234C1.51172 8.34473 2.88281 9.94434 4.71094 10.3252C4.40625 10.4014 4.02539 10.4775 3.68262 10.4775C3.41602 10.4775 3.1875 10.4395 2.9209 10.4014C3.41602 12.001 4.90137 13.1436 6.65332 13.1816C5.28223 14.248 3.56836 14.8955 1.70215 14.8955C1.35938 14.8955 1.05469 14.8574 0.75 14.8193C2.50195 15.9619 4.59668 16.6094 6.88184 16.6094C14.2324 16.6094 18.2314 10.5537 18.2314 5.25977C18.2314 5.06934 18.2314 4.91699 18.2314 4.72656Z" fill="white"/>
</svg>
